<?xml version="1.0" standalone="no"?>
<!DOCTYPE svg PUBLIC "-//W3C//DTD SVG 20010904//EN"
 "http://www.w3.org/TR/2001/REC-SVG-20010904/DTD/svg10.dtd">
<svg version="1.0" xmlns="http://www.w3.org/2000/svg"
 width="1280.000000pt" height="1280.000000pt" viewBox="0 0 1280.000000 1280.000000"
 preserveAspectRatio="xMidYMid meet">
<metadata>
Created by potrace 1.11, written by Peter Selinger 2001-2013
</metadata>
<g transform="translate(0.000000,1280.000000) scale(0.100000,-0.100000)"
fill="#000000" stroke="none">
<path d="M10239 12040 c-1 -3 -1 -8 0 -12 0 -4 -7 -4 -16 -1 -10 4 -14 2 -10
-4 4 -6 0 -14 -9 -17 -8 -3 -13 -10 -10 -15 3 -4 -6 -7 -19 -5 -14 1 -23 -2
-19 -7 3 -5 0 -9 -6 -9 -6 0 -8 -5 -4 -12 5 -9 2 -9 -9 1 -17 13 -22 8 -19
-20 1 -3 -5 -6 -13 -6 -8 0 -12 5 -9 11 3 6 -3 1 -14 -11 -10 -11 -30 -23 -43
-25 -14 -2 -23 -9 -21 -17 2 -9 -5 -12 -22 -9 -14 3 -25 2 -24 -1 2 -20 -3
-31 -12 -26 -5 3 -10 1 -10 -4 0 -6 -6 -10 -12 -8 -7 1 -12 -4 -10 -11 1 -8
-2 -11 -8 -7 -5 3 -10 0 -10 -7 0 -9 -3 -9 -10 2 -8 13 -10 12 -10 -4 0 -12
-5 -16 -15 -12 -8 3 -15 1 -15 -5 0 -6 -6 -7 -12 -3 -10 6 -10 4 0 -8 11 -14
10 -16 -12 -14 -19 2 -23 -1 -18 -13 5 -14 4 -14 -11 -2 -15 12 -17 12 -11 -4
5 -13 4 -16 -4 -11 -7 4 -12 2 -12 -4 0 -6 -4 -9 -9 -6 -5 3 -11 -1 -15 -9 -3
-8 -13 -15 -21 -15 -9 0 -13 -4 -10 -10 3 -5 -1 -10 -10 -10 -9 0 -13 -4 -10
-10 3 -5 0 -7 -8 -4 -8 3 -21 -3 -28 -14 -8 -11 -18 -20 -22 -20 -15 -1 -21
-12 -7 -12 7 0 11 -3 8 -6 -4 -3 -16 0 -28 6 -15 8 -20 8 -16 1 4 -6 2 -11 -4
-11 -6 0 -8 -5 -5 -11 4 -6 0 -9 -11 -7 -11 2 -18 -2 -17 -9 2 -6 -6 -15 -17
-18 -11 -4 -20 -12 -20 -18 0 -7 -4 -6 -10 3 -8 13 -10 12 -10 -4 0 -11 -3
-16 -7 -13 -3 4 -13 -2 -20 -13 -8 -11 -19 -18 -24 -15 -5 4 -9 1 -9 -5 0 -6
-12 -15 -26 -20 -14 -6 -22 -15 -18 -21 4 -8 -1 -9 -16 -4 -12 4 -20 3 -18 -1
3 -5 -3 -17 -14 -26 -10 -10 -18 -15 -18 -10 0 4 -5 -1 -11 -11 -6 -9 -14 -15
-20 -12 -5 4 -9 -1 -9 -9 0 -10 -7 -13 -20 -11 -11 2 -18 0 -16 -4 8 -12 -31
-44 -43 -36 -7 4 -8 0 -4 -11 4 -11 2 -15 -4 -11 -5 3 -19 -3 -31 -13 -12 -11
-26 -20 -32 -20 -6 0 -8 -4 -5 -10 3 -5 3 -10 -2 -10 -4 0 -21 -11 -37 -25
-16 -13 -34 -22 -40 -18 -6 4 -5 -1 2 -10 12 -14 11 -16 -8 -12 -16 3 -20 0
-16 -10 3 -9 0 -12 -10 -8 -10 4 -17 -2 -21 -17 -4 -16 -8 -18 -14 -8 -7 10
-9 11 -9 0 0 -7 -4 -10 -10 -7 -6 3 -7 -1 -4 -10 5 -11 2 -14 -10 -9 -11 4
-16 2 -14 -7 2 -8 -3 -13 -11 -11 -9 2 -11 -3 -7 -14 5 -14 4 -15 -9 -4 -11 9
-15 10 -15 0 0 -15 -40 -49 -59 -50 -8 0 -12 -3 -8 -6 9 -9 -21 -36 -32 -29
-5 3 -12 1 -16 -5 -3 -5 -1 -10 5 -10 6 0 8 -5 5 -10 -5 -8 -11 -7 -21 1 -12
10 -13 9 -8 -6 5 -13 4 -16 -4 -11 -7 4 -12 1 -12 -7 0 -8 -9 -17 -21 -20 -13
-4 -18 -10 -13 -18 4 -8 3 -10 -4 -5 -7 4 -12 2 -12 -3 0 -6 -7 -11 -15 -11
-8 0 -15 -7 -15 -15 0 -14 -12 -19 -32 -16 -5 0 -8 -6 -8 -15 0 -8 -4 -13 -9
-10 -5 3 -11 -4 -14 -16 -5 -18 -8 -19 -22 -8 -13 11 -15 10 -9 -4 3 -9 1 -16
-6 -16 -6 0 -8 -5 -5 -10 4 -6 3 -10 -2 -9 -26 5 -42 -2 -37 -16 5 -11 2 -13
-10 -9 -19 7 -22 -12 -3 -20 6 -3 2 -3 -10 0 -16 3 -23 -1 -28 -17 -6 -17 -9
-19 -16 -8 -7 11 -9 11 -9 -2 0 -9 -10 -24 -22 -35 l-23 -19 20 25 20 25 -23
-19 c-12 -11 -21 -25 -18 -32 3 -9 -1 -11 -11 -7 -11 4 -14 2 -9 -5 5 -8 2
-10 -8 -6 -9 4 -18 -1 -22 -10 -3 -9 -11 -13 -18 -9 -6 4 -4 -2 4 -12 8 -10
10 -16 3 -12 -6 4 -14 3 -18 -3 -4 -6 -11 -7 -17 -4 -7 4 -8 2 -4 -4 4 -7 2
-12 -3 -12 -6 0 -11 -8 -11 -17 0 -15 -2 -16 -10 -3 -9 13 -14 7 -11 -12 1 -7
-14 -12 -31 -9 -4 0 -4 -7 -1 -16 4 -11 3 -14 -5 -9 -7 4 -12 2 -12 -4 0 -6
-5 -8 -12 -4 -9 5 -8 2 1 -9 12 -15 12 -17 -3 -11 -11 4 -16 1 -16 -11 0 -12
-6 -16 -19 -12 -14 3 -18 1 -14 -9 3 -8 0 -14 -7 -14 -6 0 -8 -5 -4 -12 5 -8
0 -7 -11 2 -10 8 -16 10 -12 4 4 -7 0 -15 -9 -18 -8 -3 -13 -10 -10 -15 3 -5
-6 -12 -21 -16 -21 -5 -24 -8 -12 -16 11 -7 11 -9 -4 -9 -10 0 -20 -7 -24 -16
-3 -8 -12 -13 -21 -9 -12 4 -13 3 -3 -9 10 -12 9 -13 -8 -9 -17 4 -21 1 -21
-17 0 -19 -2 -21 -16 -10 -8 8 -14 9 -13 4 3 -20 -2 -35 -10 -29 -5 3 -12 -4
-16 -15 -3 -11 -12 -19 -18 -17 -7 1 -11 -3 -10 -9 1 -6 -4 -11 -12 -11 -8 0
-13 5 -12 10 1 5 -6 11 -16 12 -9 2 -15 0 -12 -4 2 -5 -3 -17 -11 -27 -9 -10
-12 -13 -8 -5 4 9 3 12 -4 7 -6 -4 -9 -13 -6 -20 3 -8 0 -17 -5 -21 -6 -3 -9
-11 -6 -16 4 -5 2 -9 -4 -9 -6 0 -7 -7 -4 -17 4 -10 2 -14 -4 -10 -6 4 -19 -1
-30 -11 -10 -9 -12 -12 -3 -7 13 9 13 8 1 -8 -8 -10 -20 -16 -28 -13 -8 3 -11
1 -8 -4 3 -6 1 -10 -5 -10 -6 0 -8 -5 -5 -11 4 -6 0 -9 -11 -7 -13 2 -18 -2
-16 -14 1 -9 -3 -20 -9 -24 -8 -4 -9 -3 -5 4 11 18 -10 14 -25 -5 -9 -11 -10
-14 -2 -9 9 5 11 2 7 -9 -5 -11 -10 -13 -19 -5 -10 8 -15 8 -21 -1 -4 -8 -3
-9 4 -5 7 4 12 3 12 -3 0 -5 -9 -13 -20 -16 -11 -3 -20 -13 -20 -21 0 -8 -5
-13 -12 -11 -7 1 -12 -2 -13 -8 -1 -20 -17 -36 -31 -31 -8 3 -13 0 -11 -7 1
-7 -4 -11 -10 -10 -7 2 -12 -3 -10 -10 1 -6 -4 -11 -11 -9 -8 1 -11 -1 -8 -6
2 -4 1 -14 -5 -22 -7 -13 -9 -13 -9 -1 0 11 -4 9 -14 -4 -8 -11 -12 -24 -8
-30 3 -5 -3 -3 -13 5 -13 10 -16 11 -11 2 9 -15 -23 -44 -39 -34 -5 3 -3 -3 5
-14 8 -10 11 -16 6 -12 -12 10 -48 -11 -41 -23 6 -8 -8 -13 -27 -10 -5 0 -7
-5 -5 -12 1 -6 -3 -11 -10 -10 -7 2 -10 -4 -7 -12 4 -9 0 -15 -10 -15 -9 0
-16 -7 -16 -16 0 -8 -4 -12 -10 -9 -5 3 -10 0 -10 -8 0 -8 -8 -21 -17 -28 -11
-10 -14 -10 -9 -1 4 6 2 12 -3 12 -6 0 -11 -7 -11 -15 0 -14 -13 -20 -34 -16
-5 1 -4 -5 3 -13 11 -13 9 -16 -14 -22 -17 -4 -24 -11 -21 -20 3 -8 -1 -14
-10 -14 -8 0 -12 -4 -9 -10 4 -6 -1 -7 -11 -3 -11 4 -15 2 -11 -4 4 -6 0 -13
-8 -17 -8 -3 -15 -13 -15 -21 0 -9 -3 -14 -7 -12 -5 2 -19 -8 -33 -21 -14 -14
-19 -21 -11 -17 9 5 12 4 7 -3 -4 -6 -13 -9 -20 -6 -8 3 -16 -4 -19 -15 -3
-12 -10 -21 -17 -21 -6 0 -8 5 -4 12 4 7 3 8 -5 4 -9 -6 -9 -11 0 -22 9 -11 7
-14 -11 -14 -15 0 -20 -5 -17 -14 3 -8 -1 -13 -11 -12 -9 0 -21 -9 -27 -21 -5
-13 -15 -23 -22 -23 -7 0 -13 -5 -13 -11 0 -5 5 -7 12 -3 7 4 8 3 4 -4 -4 -6
-14 -8 -23 -5 -11 4 -14 3 -9 -5 4 -7 2 -12 -4 -12 -6 0 -8 -5 -4 -12 6 -9 3
-9 -9 0 -14 12 -16 11 -12 -7 2 -14 -1 -18 -11 -14 -8 3 -14 0 -14 -6 0 -16
-33 -51 -48 -51 -7 0 -10 -5 -6 -12 5 -8 2 -9 -10 -5 -14 6 -15 4 -5 -14 7
-13 7 -19 1 -15 -6 3 -14 1 -17 -5 -4 -5 -14 -8 -22 -4 -13 4 -14 3 -3 -10 10
-13 9 -15 -10 -15 -15 0 -20 -4 -17 -15 4 -8 1 -17 -5 -21 -7 -5 -8 -2 -4 7 4
8 0 5 -9 -6 -9 -11 -20 -19 -25 -18 -5 2 -6 -5 -3 -14 4 -11 3 -14 -5 -9 -11
6 -17 -6 -13 -27 1 -4 -8 -3 -19 3 -16 9 -19 8 -13 -6 4 -12 3 -15 -6 -10 -6
4 -11 4 -10 -1 5 -27 -1 -35 -16 -23 -13 11 -14 10 -9 -5 5 -13 4 -16 -4 -11
-8 4 -10 2 -6 -7 3 -9 -3 -17 -16 -20 -12 -3 -19 -10 -16 -15 3 -5 -4 -18 -17
-28 -12 -10 -16 -12 -9 -4 6 8 12 19 12 24 0 6 -9 -2 -20 -19 -11 -16 -20 -25
-20 -20 0 6 -8 -5 -16 -22 -9 -18 -20 -30 -25 -27 -5 3 -9 -2 -9 -11 0 -11 -5
-15 -16 -11 -8 3 -13 2 -10 -2 6 -10 -38 -62 -53 -62 -6 0 -10 -6 -8 -12 1 -7
-4 -12 -10 -11 -7 2 -13 -2 -13 -9 0 -15 -117 -128 -125 -120 -3 4 -3 -2 1
-11 4 -12 2 -17 -7 -15 -8 2 -13 -3 -12 -9 3 -12 -9 -17 -29 -14 -4 0 -4 -7
-1 -16 4 -11 3 -14 -5 -9 -7 4 -12 1 -12 -7 0 -8 -11 -22 -24 -33 -14 -10 -23
-21 -20 -25 2 -4 -1 -11 -7 -15 -8 -4 -9 -3 -5 4 4 7 3 12 -3 12 -5 0 -13 -9
-16 -20 -4 -11 -11 -17 -17 -14 -8 5 -9 1 -5 -10 5 -13 3 -17 -7 -13 -11 4
-13 1 -9 -10 4 -11 2 -14 -5 -9 -7 4 -12 2 -12 -4 0 -6 -4 -9 -9 -5 -5 3 -13
0 -17 -6 -4 -8 -3 -9 4 -5 21 13 13 -3 -17 -35 -17 -17 -35 -28 -40 -24 -6 3
-8 0 -5 -8 3 -10 -2 -14 -18 -14 -32 0 -58 -13 -58 -29 0 -8 -6 -11 -15 -8 -8
4 -15 1 -15 -4 0 -6 9 -14 20 -17 11 -4 18 -11 14 -16 -3 -5 -10 -6 -16 -3 -6
4 -8 2 -4 -4 3 -6 2 -13 -4 -17 -6 -4 -7 -12 -3 -18 4 -7 -1 -6 -10 2 -15 12
-17 12 -11 -4 5 -13 4 -16 -4 -11 -7 4 -12 2 -12 -4 0 -6 -5 -8 -12 -4 -7 4
-8 3 -4 -4 4 -7 -2 -21 -13 -33 -11 -12 -18 -27 -14 -32 3 -6 1 -7 -6 -3 -6 4
-8 12 -5 18 5 7 2 8 -5 4 -7 -5 -10 -15 -7 -23 3 -8 1 -11 -4 -8 -6 3 -10 1
-10 -5 0 -6 -5 -8 -12 -4 -7 5 -9 1 -6 -13 4 -14 1 -20 -11 -19 -8 0 -16 -3
-16 -9 0 -5 -6 -19 -13 -30 -12 -19 -13 -18 -7 5 6 23 5 24 -7 5 -7 -11 -13
-24 -13 -30 -1 -5 -7 -9 -14 -7 -7 1 -10 -1 -7 -6 5 -8 -34 -48 -44 -44 -3 1
-5 -9 -5 -22 1 -18 -4 -22 -21 -20 -14 1 -21 -3 -20 -13 0 -9 -5 -18 -13 -21
-9 -3 -11 0 -6 8 5 9 4 11 -4 6 -9 -6 -9 -11 1 -24 8 -9 8 -13 2 -9 -7 4 -15
0 -18 -9 -3 -8 -11 -12 -17 -8 -8 4 -9 3 -5 -4 3 -6 -3 -16 -14 -22 -11 -6
-20 -17 -20 -25 0 -7 -4 -17 -10 -20 -6 -4 -7 1 -4 12 6 15 4 15 -9 -2 -8 -11
-13 -23 -11 -27 5 -8 -11 -12 -29 -9 -5 1 -6 -3 -2 -9 9 -15 -22 -43 -37 -34
-8 5 -7 0 2 -11 9 -11 10 -16 3 -11 -8 4 -13 1 -13 -9 0 -9 -4 -14 -8 -11 -5
3 -22 -9 -38 -27 l-29 -32 30 25 c29 24 29 24 10 2 -11 -13 -33 -30 -50 -38
-16 -8 -22 -12 -12 -9 9 2 17 0 17 -5 0 -9 -21 -14 -42 -11 -4 0 -4 -7 -1 -16
4 -11 3 -14 -5 -9 -8 5 -10 2 -6 -8 4 -11 0 -16 -11 -16 -9 0 -13 -5 -10 -11
4 -6 -3 -13 -15 -16 -16 -4 -18 -8 -8 -14 10 -7 10 -9 -2 -9 -20 0 -92 -78
-85 -90 4 -6 -2 -7 -11 -3 -14 5 -16 2 -12 -14 4 -17 2 -19 -15 -15 -13 3 -18
1 -13 -6 3 -6 -3 -16 -14 -22 -11 -6 -18 -15 -15 -19 3 -5 -2 -12 -11 -15 -8
-3 -12 -11 -9 -16 4 -6 1 -9 -7 -8 -7 2 -12 -3 -10 -10 1 -6 -1 -11 -5 -11
-20 3 -26 -2 -13 -11 12 -8 10 -10 -8 -10 -13 0 -21 -3 -19 -7 6 -11 -70 -82
-79 -74 -4 3 -4 -2 0 -13 5 -15 2 -17 -14 -13 -16 4 -19 2 -11 -7 8 -9 4 -19
-15 -37 -14 -13 -27 -22 -29 -19 -2 3 -7 2 -11 -2 -4 -5 -1 -8 6 -8 16 0 3
-15 -13 -15 -7 0 -11 -8 -11 -18 1 -9 -2 -14 -7 -11 -5 3 -9 0 -9 -6 0 -6 -5
-8 -10 -5 -5 3 -10 1 -10 -5 0 -6 -5 -8 -11 -4 -8 4 -8 0 0 -15 7 -12 8 -21 4
-20 -21 3 -33 -2 -33 -15 0 -8 -5 -18 -12 -22 -7 -5 -8 -3 -3 6 5 9 4 11 -3 6
-7 -4 -12 -12 -12 -18 0 -6 -15 -25 -32 -41 -18 -17 -27 -26 -19 -22 10 6 12
4 7 -4 -5 -7 -14 -10 -22 -7 -8 3 -13 2 -13 -2 3 -19 -2 -33 -10 -28 -5 3 -11
-4 -14 -15 -3 -12 -10 -18 -16 -14 -7 3 -8 0 -5 -9 4 -11 0 -16 -11 -16 -9 0
-14 -4 -11 -9 3 -5 -1 -12 -9 -15 -8 -3 -14 -10 -13 -15 2 -5 -1 -10 -7 -11
-18 -3 -46 -34 -41 -46 2 -6 -1 -11 -7 -10 -7 0 -14 -3 -17 -9 -11 -23 -34
-44 -43 -38 -6 3 -7 1 -3 -5 3 -6 -3 -16 -14 -22 -11 -6 -18 -15 -15 -19 5 -9
-24 -26 -38 -22 -5 1 -6 -3 -3 -8 9 -14 -4 -41 -21 -41 -8 0 -11 -5 -8 -10 3
-6 -4 -14 -17 -19 -13 -6 -19 -10 -15 -10 4 -1 -6 -15 -23 -31 -17 -17 -28
-35 -25 -40 4 -6 3 -10 -2 -9 -23 4 -35 -2 -29 -17 3 -8 2 -12 -4 -9 -6 3 -10
2 -10 -3 0 -5 -12 -7 -28 -4 -24 5 -26 4 -13 -12 12 -15 12 -16 -5 -10 -10 4
-16 4 -12 -1 4 -4 0 -14 -10 -22 -16 -12 -16 -13 3 -7 19 5 19 5 3 -9 -10 -8
-15 -17 -11 -20 3 -4 1 -7 -5 -7 -7 0 -12 -7 -12 -16 0 -8 -4 -13 -9 -10 -5 3
-11 -4 -14 -15 -4 -13 -10 -18 -18 -13 -8 4 -10 3 -5 -4 4 -7 2 -12 -3 -12 -6
0 -11 -7 -11 -16 0 -8 -5 -12 -10 -9 -6 3 -10 -1 -10 -9 0 -9 -5 -16 -11 -16
-5 0 -7 -5 -3 -12 5 -8 2 -9 -9 -5 -13 5 -17 1 -17 -14 0 -11 -4 -17 -10 -14
-10 6 -15 -9 -10 -30 1 -5 -2 -7 -6 -3 -4 5 -15 -6 -26 -22 -10 -17 -23 -29
-30 -28 -7 2 -12 -5 -12 -14 1 -10 -1 -16 -5 -13 -9 5 -41 -31 -41 -45 0 -6
-6 -10 -14 -10 -8 0 -18 -5 -22 -12 -5 -7 -2 -9 7 -4 8 4 6 1 -3 -7 -10 -8
-18 -19 -18 -24 0 -13 -47 -53 -63 -53 -8 0 -7 -4 3 -10 14 -9 13 -11 -10 -14
-14 -1 -30 -28 -24 -38 3 -4 -2 -5 -11 -2 -9 4 -15 3 -14 -2 1 -5 1 -16 0 -24
-1 -12 -3 -12 -10 -2 -6 10 -11 9 -22 -4 -12 -16 -12 -17 1 -9 12 7 13 6 3 -7
-7 -8 -10 -18 -6 -22 4 -4 -1 -4 -11 0 -11 4 -17 3 -14 -2 7 -11 -17 -35 -26
-26 -4 3 -4 -2 0 -12 5 -13 4 -17 -4 -12 -6 3 -13 2 -17 -4 -3 -5 -1 -10 6
-10 18 0 4 -11 -18 -14 -10 -2 -18 -7 -18 -12 -1 -20 -27 -54 -41 -54 -8 0
-12 -4 -9 -10 3 -6 1 -10 -5 -10 -6 0 -8 -5 -4 -12 5 -8 2 -9 -10 -5 -13 5
-17 3 -13 -7 3 -8 -2 -20 -11 -28 -11 -9 -14 -10 -8 0 15 24 -2 11 -20 -15
-17 -27 -17 -28 2 -13 18 14 18 14 5 -3 -8 -10 -20 -16 -26 -13 -8 3 -11 -2
-8 -15 3 -11 0 -19 -6 -19 -7 0 -9 5 -5 12 4 7 3 8 -4 4 -7 -4 -12 -16 -12
-26 0 -13 -5 -17 -14 -14 -9 3 -13 -1 -13 -13 1 -11 -4 -18 -15 -17 -10 1 -16
-2 -13 -6 3 -5 -2 -15 -11 -24 -8 -9 -12 -20 -9 -26 4 -6 3 -10 -2 -9 -20 3
-34 -2 -28 -10 3 -6 0 -13 -7 -18 -7 -4 -18 -17 -25 -28 -6 -11 -16 -19 -22
-17 -6 1 -11 -4 -11 -12 0 -7 -11 -22 -25 -32 -14 -10 -23 -24 -21 -31 7 -16
-19 -24 -34 -10 -10 10 -10 8 -1 -9 8 -17 7 -25 -4 -34 -8 -6 -20 -8 -26 -4
-8 4 -9 3 -5 -4 9 -14 -15 -52 -32 -52 -7 0 -11 -4 -8 -9 8 -13 -21 -34 -36
-25 -10 5 -11 4 -1 -7 11 -11 8 -15 -15 -26 -26 -12 -26 -13 -2 -8 25 6 25 5
-2 -10 -16 -9 -29 -20 -29 -25 -1 -6 -2 -14 -3 -19 0 -5 -5 -13 -10 -18 -5 -5
-6 -2 -1 6 5 9 3 12 -6 9 -8 -3 -13 -11 -11 -17 1 -6 -2 -11 -7 -11 -5 0 -13
-9 -16 -21 -4 -13 -12 -18 -21 -15 -8 3 -12 2 -9 -4 3 -5 -5 -19 -17 -31 -13
-12 -17 -18 -9 -14 10 6 12 4 7 -4 -5 -7 -14 -10 -22 -7 -9 3 -14 -2 -14 -14
0 -12 -7 -20 -17 -20 -15 0 -16 -2 -3 -10 13 -8 12 -10 -3 -10 -10 0 -15 -4
-12 -10 3 -5 1 -10 -5 -10 -6 0 -8 -5 -4 -12 6 -10 4 -10 -8 0 -14 11 -16 10
-11 -9 4 -12 2 -20 -3 -17 -11 7 -35 -17 -27 -26 4 -3 1 -6 -5 -6 -7 0 -12 -7
-12 -16 0 -10 -6 -14 -14 -11 -8 3 -17 -1 -20 -9 -4 -10 -1 -13 7 -9 6 4 3 -1
-8 -10 -11 -9 -20 -19 -20 -23 0 -4 -3 -6 -7 -4 -5 1 -8 -5 -8 -13 0 -8 -7
-15 -16 -15 -10 0 -14 -6 -11 -14 4 -10 0 -14 -14 -11 -10 2 -19 -2 -19 -8 0
-7 -4 -6 -10 3 -7 11 -10 11 -10 2 0 -7 -4 -10 -10 -7 -5 3 -10 2 -10 -2 0 -5
-9 -9 -20 -10 -11 -1 -27 -9 -36 -17 -8 -9 -24 -16 -35 -16 -10 0 -19 -6 -19
-12 0 -9 -4 -8 -11 2 -9 12 -10 11 -6 -7 4 -19 2 -21 -11 -14 -11 6 -22 2 -37
-15 -23 -25 -42 -33 -29 -12 4 7 3 8 -4 4 -6 -4 -9 -13 -5 -22 3 -8 2 -14 -3
-13 -16 4 -44 -13 -38 -22 3 -5 -2 -9 -10 -9 -17 0 -39 -34 -28 -44 3 -4 -2
-4 -12 0 -13 5 -17 4 -12 -4 3 -6 -4 -18 -16 -27 -20 -13 -21 -17 -8 -26 13
-9 13 -10 -2 -6 -9 3 -22 -1 -29 -9 -10 -12 -9 -13 7 -8 18 5 18 5 2 -9 -10
-8 -14 -18 -10 -22 4 -5 -1 -5 -11 -2 -11 4 -16 3 -12 -4 4 -5 1 -17 -7 -26
-11 -14 -11 -16 2 -8 8 4 4 -2 -8 -15 -19 -18 -21 -24 -10 -32 10 -7 10 -11 1
-15 -7 -2 -13 -16 -13 -29 0 -13 -6 -24 -12 -24 -9 0 -8 -4 2 -10 14 -9 7 -14
-13 -11 -5 1 -5 -3 -2 -9 4 -7 8 -25 9 -41 2 -20 -2 -29 -13 -29 -14 0 -14 -1
-1 -10 14 -9 7 -14 -13 -11 -5 1 -6 -3 -2 -9 3 -5 -1 -13 -9 -16 -9 -3 -16
-12 -16 -20 0 -7 -9 -19 -20 -27 -11 -8 -17 -17 -12 -22 4 -4 -1 -5 -10 -2
-10 3 -17 3 -16 -1 0 -4 -6 -23 -15 -42 -9 -19 -16 -29 -17 -22 0 6 -5 12 -11
12 -5 0 -8 -4 -5 -9 7 -11 -29 -53 -38 -44 -4 4 -4 -1 0 -11 5 -14 4 -17 -4
-12 -7 4 -12 1 -12 -9 0 -9 -4 -13 -10 -10 -9 6 -14 -8 -11 -28 1 -5 -4 -5
-10 -1 -9 5 -10 2 -5 -11 6 -16 4 -16 -11 -4 -11 9 -14 10 -9 2 4 -8 2 -13 -4
-13 -7 0 -9 -7 -6 -16 3 -8 2 -13 -2 -10 -4 2 -16 -3 -27 -11 -20 -16 -20 -16
0 -9 12 3 0 -12 -28 -38 -26 -24 -47 -49 -47 -54 0 -5 -7 -12 -15 -16 -8 -3
-15 -12 -15 -20 0 -10 -6 -13 -15 -10 -11 5 -13 2 -8 -12 4 -12 3 -15 -5 -10
-8 5 -12 0 -12 -13 0 -12 -7 -21 -16 -21 -9 0 -12 -5 -8 -12 5 -7 2 -9 -8 -5
-11 4 -15 0 -14 -10 3 -17 -24 -52 -35 -47 -4 2 -15 -6 -25 -19 -19 -21 -19
-21 0 -7 18 14 18 14 6 -7 -8 -12 -18 -19 -22 -17 -4 3 -9 0 -9 -5 -1 -6 -2
-15 -3 -21 0 -5 -7 -15 -15 -22 -12 -11 -13 -10 -7 2 5 9 2 9 -7 -2 -8 -10
-17 -15 -21 -11 -4 4 -4 -1 0 -12 7 -17 6 -18 -8 -7 -14 11 -16 10 -11 -9 5
-18 3 -21 -11 -16 -11 4 -15 3 -11 -4 4 -6 -1 -17 -11 -25 -11 -9 -13 -13 -7
-9 7 3 13 4 13 0 0 -3 -11 -10 -25 -15 -14 -5 -25 -15 -25 -22 0 -9 3 -9 11 2
9 13 10 13 6 0 -2 -8 -9 -16 -15 -16 -7 -1 -18 -2 -24 -3 -9 -1 -9 -4 2 -11
11 -7 9 -11 -13 -19 -15 -6 -27 -13 -27 -16 0 -4 5 -3 10 0 19 12 10 -3 -29
-45 -25 -28 -43 -40 -51 -35 -8 5 -11 4 -7 -3 10 -15 -3 -42 -19 -42 -8 0 -11
-6 -7 -17 4 -10 2 -14 -4 -10 -6 4 -16 0 -23 -8 -11 -13 -10 -14 6 -9 18 6 18
6 -1 -9 -11 -8 -24 -13 -29 -10 -5 4 -6 1 -3 -4 4 -6 1 -16 -7 -22 -11 -9 -15
-9 -20 1 -3 7 -3 0 -1 -16 3 -24 1 -27 -15 -23 -23 6 -26 -3 -8 -22 11 -11 11
-13 0 -7 -6 4 -12 2 -12 -5 0 -8 -3 -9 -14 0 -11 9 -13 6 -11 -14 2 -14 0 -23
-5 -20 -4 3 -10 -4 -13 -15 -3 -11 -13 -20 -22 -20 -9 0 -13 -4 -10 -10 3 -5
1 -10 -6 -10 -7 0 -10 -2 -7 -5 8 -9 -44 -65 -60 -65 -12 0 -12 -3 -2 -15 10
-12 8 -14 -9 -10 -11 2 -24 -1 -27 -7 -4 -7 -2 -8 4 -4 7 4 12 2 12 -3 0 -6
-7 -11 -16 -11 -11 0 -15 -6 -11 -19 3 -14 1 -18 -10 -14 -10 4 -14 0 -11 -13
2 -13 -2 -18 -14 -16 -9 1 -20 -3 -24 -9 -5 -8 -2 -10 7 -5 8 4 6 1 -3 -7 -10
-8 -18 -19 -18 -26 0 -6 -3 -10 -7 -10 -20 3 -24 -2 -14 -15 10 -12 8 -13 -8
-9 -16 4 -21 1 -21 -15 0 -11 -11 -29 -25 -40 -13 -11 -21 -23 -17 -27 4 -5
-1 -5 -10 -2 -10 3 -17 3 -17 -1 4 -22 -3 -33 -15 -29 -10 4 -13 1 -10 -8 3
-7 -7 -21 -25 -31 -25 -15 -28 -20 -18 -33 10 -12 9 -13 -2 -6 -11 6 -13 4 -7
-10 6 -16 4 -16 -11 -4 -10 7 -15 10 -11 5 11 -13 -10 -46 -28 -46 -10 0 -14
-6 -10 -15 3 -10 -1 -15 -11 -15 -9 0 -14 -3 -10 -6 3 -3 -6 -17 -20 -30 -16
-14 -22 -28 -17 -36 5 -9 1 -8 -11 2 -11 9 -16 10 -11 3 4 -8 2 -13 -4 -13 -6
0 -8 -5 -5 -10 3 -6 1 -10 -5 -10 -6 0 -8 -4 -5 -10 3 -5 1 -10 -5 -10 -6 0
-8 -4 -5 -10 3 -5 1 -10 -6 -10 -7 0 -5 -6 6 -13 13 -10 15 -16 6 -21 -9 -6
-7 -12 6 -23 10 -8 12 -12 5 -8 -6 3 -12 2 -12 -3 0 -6 6 -12 14 -15 9 -4 12
-14 9 -28 -4 -13 -2 -20 3 -16 6 3 15 -7 21 -24 8 -22 8 -29 0 -30 -7 0 -2 -4
11 -9 13 -6 22 -18 22 -30 0 -12 4 -19 9 -16 5 3 14 -1 21 -9 11 -13 10 -15
-6 -10 -12 4 -9 0 6 -9 14 -8 22 -15 18 -16 -15 0 27 -40 42 -40 13 0 13 -2 0
-11 -12 -9 -11 -10 7 -6 12 3 22 2 21 -2 0 -3 0 -13 1 -21 1 -13 2 -13 11 0 8
13 10 13 10 -2 0 -9 5 -20 12 -24 7 -4 8 -3 4 4 -4 8 -2 10 8 6 9 -3 12 -12 9
-21 -5 -12 -3 -14 8 -7 8 4 20 9 27 10 10 2 11 -1 1 -12 -10 -12 -9 -13 6 -8
11 5 16 3 12 -2 -3 -6 9 -10 31 -10 27 0 37 -4 36 -15 -1 -11 6 -14 28 -11 15
2 34 0 41 -6 8 -7 18 -7 27 -2 8 6 20 10 25 10 6 0 3 -5 -5 -10 -12 -8 -9 -10
13 -10 20 0 26 -4 21 -12 -6 -10 -5 -10 7 -1 8 6 27 10 41 9 15 -2 27 0 26 3
-2 19 3 31 11 26 6 -3 8 3 6 14 -2 14 1 18 10 15 8 -3 18 4 25 18 11 22 10 22
-4 4 -9 -11 -16 -15 -16 -8 0 6 9 17 20 25 11 8 17 16 14 19 -3 4 4 9 15 13
11 3 18 12 15 19 -3 7 2 16 10 19 9 4 16 13 16 22 0 8 5 15 11 15 6 0 8 7 5
16 -3 8 -2 12 4 9 6 -3 11 -1 11 4 1 6 2 15 3 20 0 5 5 13 10 18 5 5 6 2 1 -6
-6 -10 -4 -12 4 -7 7 5 10 14 7 22 -3 8 1 14 9 14 8 0 15 7 15 16 0 10 5 14
15 10 13 -5 14 -2 4 15 -8 16 -8 20 1 14 7 -4 13 1 17 14 3 12 13 21 22 21 14
0 14 2 1 10 -13 9 -13 10 0 11 8 1 18 1 21 1 3 -1 5 10 4 23 -2 13 4 30 13 37
16 12 16 11 2 -7 -14 -19 -14 -19 3 -6 11 9 16 22 13 33 -4 17 -2 17 12 6 13
-11 15 -11 9 5 -3 9 -2 17 3 17 5 0 12 9 15 20 4 11 11 18 16 15 5 -4 9 3 9
14 0 11 7 26 15 35 8 8 15 19 15 25 0 6 5 11 11 11 5 0 7 5 4 10 -4 6 -1 9 7
8 7 -2 12 3 10 11 -2 9 3 11 14 7 14 -5 15 -4 4 9 -12 14 -5 20 21 17 3 -1 5
10 3 24 -1 13 1 22 4 20 4 -2 16 5 27 16 20 19 20 19 0 13 -16 -5 -15 -4 3 7
12 8 19 17 16 21 -4 4 -2 7 5 7 7 0 9 5 5 12 -5 7 -2 9 9 5 11 -4 14 -2 10 8
-3 8 2 18 11 21 9 3 13 10 10 15 -3 5 9 22 25 38 19 19 26 31 18 35 -7 2 -4 5
6 5 15 1 22 12 18 34 -1 5 3 6 9 2 5 -3 10 1 10 9 0 9 5 16 11 16 5 0 7 5 4
10 -3 6 1 10 9 10 8 0 18 5 22 12 4 7 3 8 -4 4 -7 -4 -12 -2 -12 3 0 6 8 11
17 11 9 0 13 3 10 7 -4 3 2 12 13 20 12 8 17 20 13 30 -4 11 -3 14 5 9 7 -4
12 -1 12 9 0 9 4 14 9 11 5 -3 8 2 7 12 0 11 6 16 17 16 14 -2 15 1 6 12 -9
11 -8 14 4 14 10 0 14 6 11 15 -4 8 -1 15 5 15 6 0 11 7 11 16 0 8 4 12 10 9
5 -3 10 4 10 15 0 16 4 20 16 16 9 -3 12 -2 8 5 -3 6 4 21 16 34 12 13 19 28
15 35 -4 6 -1 9 7 8 7 -2 12 5 11 15 0 12 4 16 13 13 9 -3 14 2 14 14 0 12 7
20 16 20 14 0 15 2 3 17 -10 12 -10 14 -1 9 7 -4 15 -1 18 8 3 9 9 14 13 12 4
-3 8 5 8 16 1 12 6 24 10 27 5 3 14 18 20 34 7 15 19 27 27 27 8 0 17 14 21
30 5 23 10 28 19 21 9 -8 12 -5 12 12 -1 12 4 21 11 20 8 -2 10 4 6 14 -5 12
-3 14 7 8 10 -6 12 -4 7 8 -4 12 -1 17 9 17 10 0 14 6 10 15 -3 9 0 15 10 15
8 0 19 12 24 26 6 15 14 22 22 18 7 -4 8 -3 4 5 -4 6 -13 8 -19 5 -7 -4 4 8
23 26 19 18 26 26 16 19 -18 -13 -18 -13 -6 8 8 12 18 19 22 17 4 -3 8 0 8 6
0 6 9 20 20 32 19 21 20 21 20 2 0 -10 4 -15 8 -9 4 6 13 11 21 13 12 3 12 0
1 -12 -7 -9 -9 -17 -4 -17 5 -1 14 -2 19 -4 6 -1 18 -3 28 -3 10 -1 15 -6 12
-12 -5 -9 23 -15 48 -11 4 0 7 -3 7 -8 0 -4 12 -7 26 -5 15 1 28 -3 31 -12 3
-8 9 -12 13 -9 5 3 11 1 15 -4 3 -6 11 -8 18 -6 31 10 88 12 94 2 3 -6 1 -7
-5 -3 -7 4 -12 3 -12 -3 0 -5 15 -8 33 -7 17 2 38 -2 46 -8 11 -8 13 -8 7 2
-12 20 3 33 25 22 13 -8 19 -7 19 0 0 8 6 8 20 0 15 -8 20 -8 20 2 0 6 7 3 16
-8 8 -10 13 -13 9 -6 -3 6 -2 12 3 12 5 0 12 -9 15 -20 3 -11 0 -20 -6 -20 -7
0 -6 -4 3 -9 8 -6 19 -7 25 -3 5 3 4 -2 -4 -11 -9 -11 -10 -17 -2 -17 6 0 11
-7 11 -15 0 -8 5 -15 11 -15 5 0 7 -5 4 -10 -4 -6 -1 -17 5 -25 6 -8 9 -19 6
-24 -4 -5 2 -16 12 -23 19 -14 21 -26 8 -47 -6 -9 -5 -12 1 -8 14 9 23 -16 13
-34 -6 -8 -4 -16 3 -21 9 -6 9 -8 0 -8 -14 0 -8 -43 7 -48 5 -2 10 -10 10 -19
0 -8 7 -21 16 -30 8 -9 13 -22 10 -30 -5 -11 -2 -11 15 -2 16 8 20 8 14 0 -9
-16 13 -41 31 -34 9 3 14 -1 14 -13 0 -16 2 -17 10 -4 6 10 10 11 10 3 0 -7 5
-13 11 -13 5 0 7 6 3 12 -6 10 -4 10 8 0 13 -10 17 -10 21 0 4 10 6 10 6 -1 1
-11 4 -11 18 0 11 10 14 10 9 1 -4 -7 -1 -12 9 -12 10 0 13 5 9 13 -5 7 0 6
11 -3 15 -12 17 -12 10 -1 -6 11 -4 13 8 8 10 -4 16 -2 14 6 -1 7 9 11 28 10
25 -2 27 -1 10 6 -11 5 -14 10 -7 10 7 1 11 5 7 10 -3 6 3 8 14 6 14 -2 18 1
14 11 -3 8 0 14 6 14 6 0 11 7 11 15 0 8 7 15 16 15 14 0 14 3 4 15 -8 10 -9
15 -2 15 7 0 9 7 5 17 -4 10 -2 14 4 10 5 -3 10 0 10 8 0 8 -3 12 -7 10 -8 -5
-4 50 4 64 4 7 1 8 -8 5 -13 -5 -14 -1 -6 24 7 25 5 30 -6 25 -12 -5 -20 19
-15 49 0 4 -6 5 -14 2 -14 -6 -20 7 -16 30 1 5 -5 4 -13 -4 -13 -10 -16 -10
-16 0 0 8 -3 10 -7 7 -3 -4 -13 2 -21 14 -8 11 -20 18 -29 15 -8 -3 -11 -1 -8
4 3 5 -3 18 -15 30 -11 11 -20 27 -20 35 0 8 -5 15 -11 15 -8 0 -8 5 1 15 12
15 3 21 -24 16 -5 -1 -6 5 -3 14 8 19 -2 47 -14 39 -5 -3 -9 2 -9 10 0 8 5 18
10 21 6 4 7 11 4 17 -4 6 -2 8 4 4 6 -3 13 -2 17 4 4 6 11 7 17 4 7 -4 8 -2 4
4 -4 7 -2 12 3 12 6 0 11 7 11 15 0 8 5 14 12 13 7 -2 17 7 23 20 5 12 15 22
21 22 7 0 10 9 7 23 -4 18 -3 19 6 7 8 -11 11 -12 11 -2 0 7 4 11 8 8 5 -3 9
1 9 9 0 8 -5 12 -11 9 -6 -3 -2 3 9 13 11 10 20 25 20 33 0 8 6 14 13 12 10
-2 10 2 2 18 -9 17 -8 19 7 13 15 -5 16 -4 5 8 -10 11 -8 17 10 32 13 10 17
16 11 12 -16 -8 -17 21 -1 31 7 5 8 3 3 -6 -5 -9 -4 -11 4 -6 9 6 9 11 0 22
-6 8 -7 14 -2 14 5 0 9 10 8 23 -1 12 2 28 8 35 6 8 6 12 -3 12 -9 0 -9 4 1
17 8 9 9 14 3 11 -6 -4 -10 3 -10 18 0 20 4 23 21 18 18 -5 18 -5 -3 11 -17
13 -20 20 -12 35 7 13 7 21 0 25 -5 3 -10 11 -10 16 0 6 6 7 13 3 8 -5 8 -3
-2 9 -7 9 -11 30 -9 46 2 17 1 28 -3 26 -4 -3 -10 2 -13 11 -3 8 -2 12 4 9 6
-3 13 1 16 9 3 9 11 13 17 9 5 -3 7 -1 4 4 -4 6 2 18 13 28 11 10 17 22 14 26
-3 5 2 9 11 9 12 0 15 5 11 16 -5 12 -2 15 9 10 9 -3 13 -2 10 3 -3 5 -1 12 5
16 6 4 8 11 4 16 -3 6 3 13 14 16 11 2 23 14 25 25 4 13 10 17 18 12 7 -4 10
-3 5 4 -3 6 -2 13 4 17 19 12 10 31 -14 31 -21 0 -23 -3 -14 -19 5 -10 7 -21
4 -25 -3 -3 -6 -1 -6 5 0 5 -7 10 -16 10 -14 0 -14 -2 2 -15 18 -14 18 -14 1
-8 -14 4 -20 0 -24 -14 -3 -11 -10 -17 -17 -13 -6 3 -8 3 -4 -1 8 -9 -14 -36
-24 -30 -4 2 -10 -1 -14 -7 -4 -8 -3 -9 4 -5 7 4 12 1 12 -9 0 -10 -5 -15 -14
-12 -9 4 -12 -2 -10 -19 2 -22 0 -23 -13 -12 -15 12 -15 10 -3 -12 12 -23 12
-24 -4 -11 -16 13 -18 13 -16 0 1 -7 2 -21 1 -29 -1 -13 -3 -13 -10 -1 -5 8
-7 21 -4 30 4 11 0 9 -10 -4 -17 -20 -22 -12 -18 24 2 8 -2 10 -10 5 -9 -5
-10 -2 -6 10 6 14 3 17 -9 12 -15 -6 -15 -4 -3 11 12 15 12 16 -3 10 -10 -3
-17 -3 -16 1 1 4 -3 16 -9 27 -6 11 -11 24 -11 28 0 5 -4 12 -8 15 -4 4 -4 0
1 -8 5 -10 2 -9 -11 3 -17 15 -17 19 -4 28 13 9 13 10 0 7 -8 -3 -24 6 -36 19
-12 13 -27 23 -33 23 -7 0 -9 4 -6 10 3 6 -1 10 -10 10 -9 0 -14 4 -11 8 2 4
-4 14 -16 21 -16 10 -19 10 -13 -1 3 -7 0 -4 -9 6 -17 22 -13 36 12 36 14 0
15 2 2 10 -11 7 -9 11 13 19 15 6 27 13 27 16 0 4 -5 3 -10 0 -6 -3 -10 1 -10
9 0 10 6 13 18 9 9 -3 14 -3 11 1 -9 10 33 53 46 48 6 -3 5 1 -2 8 -16 18 6
43 25 28 9 -8 11 -7 7 4 -4 9 1 23 10 32 9 9 13 21 9 27 -4 8 -3 9 4 5 7 -4
16 3 22 18 9 24 43 50 52 40 3 -2 4 6 3 20 -2 19 1 23 13 19 10 -4 13 -2 8 5
-4 7 -2 12 4 12 7 0 10 7 7 14 -4 10 -1 13 7 10 8 -3 17 0 22 7 4 8 3 10 -4 5
-8 -5 -10 -1 -6 9 4 9 13 14 20 11 9 -3 11 0 7 11 -4 11 -2 14 5 9 7 -4 13 -2
13 3 5 37 20 60 35 54 8 -3 14 -2 13 3 -3 20 2 35 10 30 5 -3 12 5 15 19 4 14
12 24 19 22 6 -1 11 6 11 15 -1 10 2 15 7 13 4 -3 16 6 25 20 9 14 21 22 28
18 7 -4 6 -1 -1 8 -11 13 -8 20 14 40 14 13 23 18 18 10 -5 -10 -4 -12 4 -7 6
4 9 11 6 16 -3 4 7 15 21 25 21 13 23 19 13 31 -10 12 -9 13 4 9 8 -4 18 -2
22 4 3 6 0 11 -7 11 -10 0 -9 3 2 9 8 6 18 7 24 4 5 -3 6 -1 2 5 -4 7 -2 12 4
12 6 0 9 4 6 8 -3 5 4 14 14 22 10 8 16 18 13 24 -4 5 1 7 10 3 10 -4 18 -1
19 6 0 7 2 17 3 22 2 6 3 14 4 19 0 5 8 3 16 -4 13 -11 14 -10 9 3 -3 9 3 24
14 35 11 11 18 23 15 26 -4 3 1 6 11 6 9 0 14 4 11 10 -3 6 -1 10 5 10 6 0 8
4 5 10 -4 6 1 7 11 3 11 -4 15 -2 11 4 -4 5 1 19 9 29 9 10 13 13 9 7 -11 -22
4 -14 16 8 9 17 8 20 -3 13 -11 -6 -11 -5 1 9 7 9 17 14 22 11 5 -3 8 0 7 8
-2 7 4 12 12 10 8 -2 12 0 8 3 -11 12 11 45 29 45 9 0 14 3 10 6 -3 4 2 14 11
23 11 10 12 12 2 6 -13 -9 -13 -8 -1 8 7 9 19 17 27 17 7 0 11 8 9 19 -3 15 1
18 12 14 11 -4 14 -2 9 5 -4 7 -1 15 8 18 9 3 16 13 16 21 0 8 5 11 12 7 8 -5
9 -2 5 10 -5 11 -3 15 5 10 7 -5 9 -2 5 9 -4 11 -2 14 9 10 7 -3 14 0 14 7 0
6 5 8 12 4 7 -4 8 -3 4 4 -4 6 3 21 14 32 11 11 18 26 14 32 -4 7 -3 8 4 4 7
-4 12 -2 12 4 0 6 4 8 10 5 6 -3 7 1 4 9 -6 16 10 23 19 9 2 -5 2 -2 1 5 -2 6
1 12 7 12 6 0 7 5 4 10 -3 6 -1 10 5 10 6 0 8 5 4 12 -5 8 -2 9 9 5 9 -3 19
-1 23 5 4 7 3 8 -4 4 -25 -15 -10 10 16 28 15 9 19 15 9 12 -17 -5 -17 -5 0
18 10 13 24 21 32 18 9 -3 12 -1 7 6 -4 7 -2 12 4 12 7 0 10 7 7 14 -4 10 -1
13 8 9 8 -3 12 -10 8 -17 -3 -6 4 -2 16 9 12 11 22 15 21 10 -5 -25 1 -37 16
-31 15 6 15 4 3 -11 -9 -11 -10 -14 -1 -9 8 5 12 1 13 -11 0 -10 3 -13 6 -5 2
6 9 12 14 12 4 0 6 -7 3 -15 -4 -8 -1 -15 5 -15 6 0 8 -8 5 -17 -3 -10 2 -7
10 7 16 27 22 55 6 30 -9 -13 -10 -13 -11 0 -2 22 -2 23 6 48 5 17 2 22 -13
22 -19 0 -54 30 -36 30 5 0 3 4 -4 9 -11 6 -10 11 3 24 8 9 16 19 15 22 -1 20
2 24 18 18 15 -6 16 -5 2 12 -8 10 -10 16 -5 13 6 -3 16 0 23 8 7 8 10 14 7
14 -3 0 8 14 25 30 17 17 28 35 25 40 -4 6 1 7 11 3 11 -4 15 -2 11 4 -4 6 0
14 9 17 9 3 12 11 8 18 -5 8 -2 9 9 5 12 -4 14 -2 10 10 -5 12 -2 15 9 11 10
-4 15 -1 14 10 0 9 4 16 11 15 7 -2 10 6 8 17 -2 12 0 18 4 16 15 -10 50 24
44 41 -4 11 -3 14 5 9 7 -4 12 -1 12 8 0 8 9 21 20 29 11 8 17 16 14 19 -3 4
4 9 15 13 12 3 21 13 21 21 0 8 7 17 15 20 13 5 13 9 3 22 -12 14 -10 14 12 2
23 -12 24 -12 12 3 -12 14 -11 16 8 12 19 -4 20 -2 8 12 -7 9 -8 14 -2 10 7
-4 17 0 24 8 11 13 10 15 -6 10 -10 -4 -6 1 9 10 16 9 25 21 21 27 -4 6 -3 9
2 6 5 -2 20 7 34 20 14 14 19 22 13 18 -9 -5 -11 -2 -7 9 5 12 9 13 20 4 12
-10 13 -8 8 6 -6 14 -4 16 7 10 11 -7 11 -5 -1 10 -8 10 -10 16 -4 12 7 -4 15
0 18 9 3 9 12 14 20 11 10 -4 12 0 8 15 -3 13 -1 19 5 15 6 -4 13 3 16 14 4
14 10 18 18 13 9 -5 10 -2 6 10 -4 9 -3 15 1 13 4 -3 18 7 32 21 16 16 18 20
5 11 -18 -13 -19 -13 -6 4 7 9 21 17 30 17 12 0 13 2 3 9 -10 6 -8 10 8 14 16
4 21 11 16 22 -3 9 -2 14 2 12 4 -2 15 4 24 15 10 10 15 18 10 18 -4 0 1 5 11
11 9 6 15 14 12 19 -3 5 4 7 16 5 17 -4 19 -2 8 11 -10 12 -9 13 6 8 13 -5 16
-4 11 4 -4 7 -1 15 8 18 9 3 13 10 10 15 -3 5 2 9 11 9 11 0 15 5 11 16 -3 8
-2 12 4 9 6 -3 10 -1 10 5 0 6 4 9 9 6 5 -3 8 2 7 12 0 9 4 16 11 15 6 -1 17
4 23 13 11 12 10 13 -6 8 -10 -3 -4 3 14 15 29 19 37 31 33 54 -2 11 13 9 26
-4 7 -7 9 -3 5 17 -3 18 -1 25 6 20 14 -8 54 43 45 58 -4 6 2 4 12 -4 10 -8
16 -10 12 -3 -9 15 13 53 30 53 7 0 13 5 13 11 0 5 -5 7 -12 3 -7 -5 -8 -3 -4
5 5 7 11 10 14 7 3 -3 12 3 19 14 8 11 19 18 24 15 5 -3 6 0 3 8 -3 9 4 21 15
29 12 8 18 18 13 23 -4 4 1 5 11 2 10 -4 16 -3 13 1 -3 5 4 16 15 25 11 10 17
23 13 29 -4 7 -3 8 4 4 7 -4 16 2 21 17 5 14 30 41 55 62 25 20 43 41 40 46
-5 8 10 13 29 10 5 -1 6 3 3 8 -8 12 3 41 16 41 5 0 6 -5 2 -12 -5 -7 -3 -8 5
-4 7 5 10 15 7 23 -3 8 -1 11 4 8 6 -3 15 6 20 20 6 16 14 23 22 19 7 -5 9 -2
5 9 -6 16 15 42 26 30 4 -3 10 2 14 12 3 11 26 37 49 58 24 22 41 44 38 49 -3
4 0 8 6 8 6 0 9 4 5 9 -3 5 0 13 6 17 7 4 9 3 5 -4 -3 -6 -1 -14 6 -18 7 -4
10 -4 6 1 -13 14 22 67 39 61 12 -5 13 -4 5 7 -16 19 -3 30 16 14 11 -8 14 -8
9 0 -4 6 -1 18 7 26 8 8 12 17 9 21 -4 3 -1 7 5 7 7 1 18 2 25 3 14 2 37 -18
37 -33 0 -6 5 -11 11 -11 5 0 7 5 3 12 -4 6 -3 8 4 4 6 -3 9 -19 6 -34 -3 -18
-1 -23 5 -13 10 15 23 1 18 -21 -2 -7 -2 -10 0 -6 6 9 33 -2 33 -14 0 -5 -5
-6 -12 -2 -6 4 -8 3 -4 -4 3 -6 18 -9 32 -6 16 3 23 1 19 -6 -3 -6 0 -7 9 -4
23 9 20 12 -18 28 -23 9 -34 20 -33 33 1 12 -4 17 -16 17 -13 -2 -17 4 -15 17
2 11 7 18 13 17 5 -2 9 -7 7 -11 -1 -5 2 -6 7 -3 5 4 11 1 13 -6 3 -8 9 -8 24
1 13 9 14 11 2 7 -10 -3 -18 2 -21 16 -3 11 -10 17 -16 14 -5 -4 -12 3 -16 14
-3 11 -16 25 -27 31 -17 9 -18 13 -7 20 10 6 11 9 2 9 -7 0 -13 5 -13 11 0 5
4 8 9 5 5 -3 12 1 15 10 3 8 11 12 16 9 6 -4 10 -3 9 2 -3 20 2 34 10 28 12
-7 33 29 23 40 -4 5 -1 5 6 1 7 -4 15 0 19 11 3 10 19 32 34 50 21 24 30 29
39 20 10 -9 11 -7 5 11 -3 12 -3 21 2 20 4 -2 9 0 11 4 5 14 53 58 63 58 6 0
7 5 4 10 -3 6 -1 10 4 10 6 0 11 7 11 16 0 8 5 12 10 9 6 -3 10 -1 10 5 0 6 5
8 12 4 8 -5 9 -2 5 9 -4 11 -1 17 9 17 8 0 12 5 9 10 -5 9 7 14 27 12 3 -1 9
5 12 13 3 10 0 12 -12 9 -9 -3 -7 1 6 8 12 8 19 18 15 23 -4 5 0 3 10 -5 10
-7 17 -9 16 -4 -4 23 2 45 11 39 6 -3 13 1 16 9 3 9 11 13 18 9 6 -4 4 2 -4
12 -9 11 -10 16 -2 11 6 -4 12 -2 12 3 0 6 7 11 15 11 8 0 12 6 9 14 -3 9 1
13 13 13 13 -2 17 4 15 18 -2 11 -1 17 4 13 4 -4 15 2 25 13 11 13 23 18 31
13 10 -6 10 -4 -1 9 -12 15 -9 21 11 18 4 0 10 8 13 19 4 11 11 17 17 14 7 -5
9 -1 5 9 -4 12 -2 14 11 10 9 -3 14 -2 10 2 -5 5 1 15 13 23 12 8 18 20 14 29
-5 14 -3 14 12 2 11 -9 14 -10 9 -1 -5 8 -1 12 11 12 15 0 16 2 3 10 -13 8
-12 10 3 10 9 0 17 5 17 11 0 5 5 7 12 3 7 -4 8 -3 4 4 -9 16 22 62 38 56 8
-3 16 4 19 16 3 12 10 19 16 15 7 -3 8 0 5 9 -4 11 0 16 15 16 15 0 19 4 14
17 -5 12 -3 14 7 8 10 -6 12 -4 7 7 -3 10 0 15 11 14 10 -1 16 6 16 16 -1 10
2 15 7 12 5 -3 9 0 9 6 0 7 7 9 16 6 8 -3 13 -2 10 3 -3 4 2 17 10 27 9 10 12
13 8 5 -5 -10 -3 -12 5 -7 7 5 10 15 7 23 -3 8 -2 12 3 9 5 -3 12 1 15 10 3 8
11 12 17 8 8 -4 9 -3 5 5 -4 6 0 14 8 17 9 3 13 11 9 17 -4 6 0 8 9 4 11 -4
18 1 21 15 3 11 10 17 16 13 6 -3 11 -2 11 4 0 20 49 63 62 55 10 -6 11 -5 1
7 -10 13 -7 18 18 33 17 10 34 29 39 42 5 13 17 24 25 24 9 0 14 3 12 8 -6 9
19 33 27 25 3 -4 6 -1 6 5 0 17 46 63 55 54 5 -4 5 1 2 11 -4 10 -3 16 2 12 5
-3 12 4 16 14 4 14 12 18 23 14 9 -3 14 -3 10 2 -9 10 19 38 31 31 5 -3 7 3 4
14 -3 12 -2 20 3 19 20 -3 34 2 34 12 0 5 -5 7 -12 3 -7 -4 -8 -3 -4 4 4 7 16
12 26 12 10 0 22 5 26 12 4 7 3 8 -4 4 -7 -4 -12 -2 -12 5 0 7 8 9 21 6 17 -5
18 -3 7 11 -10 12 -10 14 0 8 7 -4 15 -1 18 9 4 9 12 14 19 12 6 -3 12 1 12 9
0 7 -5 10 -11 7 -6 -4 -5 0 2 9 7 9 22 15 34 13 16 -4 18 -2 7 11 -6 8 -9 17
-5 21 3 3 6 1 6 -6 0 -7 5 -9 10 -6 6 4 7 11 4 17 -5 7 0 9 14 6 12 -4 20 -2
17 2 -3 5 4 15 15 23 11 7 17 17 13 20 -3 4 -1 7 6 7 7 0 9 5 5 12 -5 7 -2 9
9 5 9 -3 18 0 21 9 4 10 2 12 -6 8 -7 -5 -8 -3 -4 5 5 7 15 10 23 7 8 -3 12
-2 9 3 -3 5 1 12 10 15 9 4 14 13 10 22 -3 8 -1 12 4 9 5 -3 18 3 29 14 11 11
22 17 25 14 3 -4 6 3 6 15 0 16 4 20 17 15 11 -4 14 -3 9 5 -4 7 -2 12 6 12
10 0 9 3 -2 11 -12 9 -11 10 8 6 12 -3 22 -1 22 5 0 15 27 38 35 30 5 -4 5 1
2 11 -4 10 -3 16 2 12 5 -3 12 -1 16 5 3 5 11 10 16 10 6 0 7 -4 4 -10 -3 -5
1 -10 9 -10 9 0 16 -5 16 -11 0 -5 5 -7 12 -3 8 5 9 2 5 -9 -3 -10 -2 -17 4
-17 6 0 7 -4 4 -10 -3 -5 -1 -10 4 -10 6 0 11 -6 11 -14 0 -7 14 -19 30 -26
26 -11 28 -15 18 -28 -7 -9 -8 -13 -3 -10 6 3 16 0 23 -8 11 -12 9 -14 -10
-14 -13 0 -18 -4 -13 -8 15 -11 17 -34 3 -30 -7 3 -20 -5 -29 -16 -17 -20 -16
-22 4 -33 31 -18 36 -16 33 12 -2 16 3 26 14 30 10 3 21 13 24 22 6 14 4 14
-11 2 -16 -12 -17 -12 -5 2 8 11 23 15 43 13 l31 -4 -17 26 c-12 18 -13 25 -3
23 26 -3 38 1 36 14 -2 6 4 11 13 9 9 -1 24 8 35 20 10 12 13 18 5 13 -10 -6
-12 -4 -7 4 6 9 11 9 24 -1 11 -9 13 -9 9 -1 -5 7 1 16 13 23 11 6 20 8 20 4
0 -4 9 3 19 15 10 12 25 20 32 19 8 -2 13 3 11 10 -1 6 4 12 12 12 13 0 52 49
49 61 -1 3 9 4 23 1 15 -3 32 2 43 12 10 9 21 13 24 9 4 -3 7 -1 7 6 0 7 -7
11 -14 8 -10 -4 -13 -1 -9 8 4 11 10 12 24 4 15 -8 19 -6 19 6 0 10 5 13 12 9
7 -4 8 -3 4 4 -6 11 12 17 37 13 4 0 6 2 5 6 -5 17 24 53 40 51 9 -2 18 5 20
16 3 13 0 16 -9 11 -8 -6 -10 -4 -5 4 6 9 13 8 29 -6 11 -10 17 -13 14 -7 -4
7 0 17 8 24 21 18 19 46 -4 46 -11 0 -17 -4 -15 -8 6 -9 -53 -68 -67 -68 -5 0
-9 -5 -9 -11 0 -5 -4 -8 -9 -5 -4 3 -16 -3 -26 -14 -10 -11 -21 -17 -26 -15
-4 3 -14 -4 -22 -15 -7 -11 -17 -17 -21 -12 -4 4 -6 0 -4 -8 2 -8 -3 -14 -10
-12 -8 1 -11 -1 -8 -6 3 -5 -16 -20 -42 -34 -35 -20 -47 -31 -46 -48 1 -19 -1
-20 -10 -8 -12 16 -36 13 -36 -3 0 -6 6 -7 13 -4 6 4 3 -1 -7 -9 -16 -13 -22
-13 -34 -3 -13 10 -14 9 -4 -9 14 -26 6 -37 -18 -24 -20 11 -31 4 -24 -15 4
-9 -4 -12 -24 -10 -26 2 -28 0 -27 -28 2 -26 0 -28 -10 -14 -15 21 -25 22 -25
3 0 -8 -5 -18 -12 -22 -7 -4 -8 -3 -4 4 9 16 -7 15 -22 0 -7 -7 -13 -9 -13 -5
-1 4 -3 12 -4 17 -1 6 -3 15 -4 21 0 7 -10 0 -22 -15 -11 -14 -25 -26 -31 -26
-6 0 -3 9 7 20 24 27 27 48 6 46 -11 -1 -15 5 -13 19 3 16 1 18 -9 8 -16 -16
-33 -17 -23 -1 4 6 3 8 -4 4 -6 -3 -9 -19 -6 -34 3 -19 2 -23 -5 -13 -5 8 -7
24 -4 35 9 39 3 75 -12 70 -6 -3 -12 2 -12 11 0 14 11 20 31 16 5 -1 4 5 -3
13 -10 12 -8 14 14 12 20 -3 23 -1 14 10 -6 8 -9 15 -5 15 3 1 12 2 19 3 6 1
11 7 9 14 -1 7 3 12 9 12 20 0 61 38 47 43 -10 4 -10 6 1 6 16 1 61 47 54 55
-3 3 4 3 17 1 17 -3 20 -2 10 10 -8 10 -8 15 1 21 8 5 10 3 4 -7 -4 -8 9 5 29
29 21 23 44 42 52 42 9 0 12 5 9 10 -3 6 1 10 9 10 8 0 18 5 22 12 4 7 3 8 -4
4 -8 -5 -10 -2 -6 9 5 12 9 13 20 4 11 -9 14 -7 14 10 0 12 5 19 10 16 6 -3
10 -1 10 5 0 7 7 10 14 7 10 -4 13 -1 9 8 -3 8 2 18 11 21 9 3 13 11 9 17 -4
6 0 8 10 4 10 -3 17 -2 17 4 0 6 5 7 12 3 7 -5 8 -3 4 5 -5 8 0 14 14 18 16 4
18 8 8 14 -10 7 -10 9 -1 9 7 0 34 21 60 48 26 26 40 38 32 27 -10 -15 -7 -14
9 3 12 13 19 28 16 34 -4 7 -2 8 4 4 13 -8 113 89 103 100 -3 4 0 4 6 0 7 -4
24 4 40 18 15 14 31 22 37 19 6 -4 5 0 -2 9 -10 13 -10 18 -1 24 8 5 10 3 5
-7 -4 -8 2 -3 14 11 12 14 19 19 15 13 -3 -7 -1 -13 4 -13 6 0 11 9 11 21 0
11 5 17 10 14 6 -3 10 -1 10 4 0 6 7 11 15 11 8 0 15 5 15 11 0 13 25 39 39
39 6 0 15 9 21 21 7 11 17 18 25 16 7 -3 12 1 11 11 0 10 5 16 13 14 8 -2 11
3 8 12 -4 10 -1 13 7 10 8 -3 20 4 28 15 8 12 18 18 23 13 4 -4 5 1 2 11 -4 9
-2 17 5 17 6 0 17 8 24 18 13 16 14 16 7 -3 -4 -14 1 -10 18 10 13 17 29 34
36 38 8 5 10 14 7 20 -4 7 -4 9 1 5 11 -10 45 10 45 27 0 7 9 17 20 20 11 4
18 11 15 16 -4 5 3 9 13 9 21 0 46 23 36 33 -4 4 2 5 13 3 14 -3 20 1 19 12
-1 12 6 17 22 16 18 -1 20 1 11 13 -7 7 -9 16 -5 20 3 3 6 1 6 -5 0 -7 4 -12
10 -12 5 0 6 8 3 18 -6 15 -5 16 13 2 10 -8 16 -11 13 -7 -4 4 9 23 28 42 35
35 50 45 37 23 -4 -7 -3 -8 4 -4 6 4 8 14 5 23 -4 10 -2 14 4 10 6 -4 18 -1
26 7 8 8 18 12 21 8 4 -3 4 1 0 11 -6 16 4 22 28 18 5 0 7 5 5 12 -1 6 4 11
11 10 6 -2 12 3 12 10 0 15 36 48 44 40 3 -4 6 -1 6 6 0 7 5 9 10 6 6 -3 10
-1 10 5 0 6 5 8 12 4 6 -4 8 -3 5 3 -4 6 1 17 10 24 14 12 16 12 9 -1 -4 -8 0
-6 9 5 9 11 21 19 27 17 7 -2 6 4 -2 13 -7 9 -9 15 -4 14 27 -5 46 2 41 15 -4
10 -1 13 9 9 11 -4 15 0 12 13 -2 14 3 19 20 18 12 -1 22 4 22 12 0 7 5 16 12
20 7 5 8 3 3 -6 -5 -8 -3 -11 6 -8 8 3 13 10 12 17 -2 6 9 14 23 17 17 4 22 9
14 14 -9 5 -9 9 -1 14 6 4 11 4 11 0 0 -4 7 1 16 12 8 10 13 14 10 7 -4 -6 -1
-15 6 -19 7 -4 10 -4 6 1 -11 12 11 47 24 39 7 -5 9 -2 5 8 -4 12 0 15 18 14
15 -2 22 1 19 9 -3 6 3 18 13 26 17 13 17 13 3 -5 -10 -14 -11 -17 -2 -12 7 4
17 19 23 33 5 13 13 22 18 19 13 -8 42 4 36 15 -3 5 6 11 20 15 18 4 24 11 20
21 -3 11 -1 13 10 9 8 -3 15 -2 15 3 0 4 7 8 15 8 8 0 12 -4 9 -9 -3 -4 6 -8
20 -8 25 0 43 -16 31 -28 -3 -3 -10 0 -15 8 -5 8 -12 11 -16 8 -3 -4 9 -17 27
-28 l34 -22 -30 6 c-16 3 -24 3 -17 0 6 -3 9 -11 5 -17 -4 -6 0 -8 10 -4 9 3
19 1 23 -5 4 -7 3 -8 -4 -4 -7 4 -12 2 -12 -5 0 -7 -3 -10 -6 -6 -9 8 -49 -36
-46 -51 2 -6 -8 -16 -22 -22 -14 -5 -30 -19 -36 -31 -10 -17 -14 -19 -21 -8
-6 9 -8 2 -4 -21 4 -24 2 -31 -4 -20 -6 8 -13 11 -17 7 -4 -3 -1 -13 5 -21 9
-11 9 -16 0 -22 -7 -4 -9 -3 -6 3 4 6 0 13 -8 17 -10 4 -15 -1 -15 -15 0 -15
-5 -19 -15 -15 -14 5 -20 -6 -16 -28 1 -5 -5 -6 -14 -2 -11 4 -15 1 -13 -12 2
-10 -3 -16 -10 -14 -10 2 -10 -2 -2 -18 6 -11 16 -20 22 -20 6 0 5 6 -3 17 -8
9 -9 14 -2 10 12 -7 75 40 70 51 -4 10 51 61 57 54 4 -3 6 0 6 6 0 5 -6 13
-12 15 -8 3 -5 6 5 6 10 1 15 6 12 11 -3 6 -2 10 4 10 18 0 62 52 57 67 -3 8
-2 12 3 8 13 -7 42 5 36 16 -9 14 29 29 46 17 11 -8 11 -9 -3 -4 -10 3 -18 1
-18 -4 0 -6 7 -10 16 -10 9 0 12 -5 8 -12 -5 -9 -2 -9 9 1 17 13 23 6 18 -21
0 -5 4 -8 10 -8 6 0 9 7 5 15 -4 13 -2 14 14 5 11 -6 20 -13 20 -16 0 -3 -4
-2 -10 1 -6 3 -7 -1 -4 -10 6 -14 8 -14 25 1 14 13 16 20 8 30 -6 8 -15 12
-19 9 -4 -2 -16 2 -26 10 -18 15 -18 15 1 8 15 -5 13 1 -10 22 -16 16 -29 33
-27 37 2 7 -38 13 -61 9 -5 -1 -6 3 -2 8 3 6 11 9 18 7 7 -1 9 -1 4 1 -4 3 -5
9 -2 14 4 5 -1 6 -10 3 -11 -5 -14 -2 -9 12 4 14 3 15 -3 6 -8 -10 -13 -9 -24
4 -8 10 -9 15 -2 11 22 -14 33 26 13 50 -15 19 -58 28 -61 13z m-105 -412 c-3
-4 -9 -8 -15 -8 -5 0 -9 4 -9 8 0 5 7 9 15 9 8 0 12 -4 9 -9z m-634 -252 c0
-2 -8 -10 -17 -17 -16 -13 -17 -12 -4 4 13 16 21 21 21 13z m-395 -335 c3 -5
2 -12 -3 -15 -5 -3 -9 1 -9 9 0 17 3 19 12 6z m-270 -251 c-3 -5 -12 -10 -18
-10 -7 0 -6 4 3 10 19 12 23 12 15 0z m-182 -621 c-8 -8 -13 -7 -18 2 -5 8 -4
10 3 5 7 -4 12 -2 12 5 0 7 3 9 7 6 4 -4 2 -12 -4 -18z m-798 -9 c-3 -5 -11
-10 -16 -10 -6 0 -7 5 -4 10 3 6 11 10 16 10 6 0 7 -4 4 -10z m746 -17 c-12
-20 -14 -14 -5 12 4 9 9 14 11 11 3 -2 0 -13 -6 -23z m-41 -49 c0 -8 -19 -13
-24 -6 -3 5 1 9 9 9 8 0 15 -2 15 -3z m-424 -149 c4 -8 11 -12 18 -8 6 3 2 -3
-8 -16 -24 -27 -41 -22 -41 12 -1 29 22 37 31 12z m51 -44 c1 -13 -3 -18 -12
-15 -10 4 -13 0 -10 -15 2 -12 0 -19 -5 -16 -11 7 -7 29 9 49 17 20 16 20 18
-3z m-60 -136 c0 -8 -4 -15 -9 -15 -10 0 -11 14 -1 23 9 10 10 9 10 -8z
m-1163 -473 c3 -5 -1 -9 -9 -9 -8 0 -12 4 -9 9 3 4 7 8 9 8 2 0 6 -4 9 -8z
m-830 -1363 c-3 -5 -10 -7 -15 -3 -5 3 -7 10 -3 15 3 5 10 7 15 3 5 -3 7 -10
3 -15z m26 -59 c0 -5 -2 -10 -4 -10 -3 0 -8 5 -11 10 -3 6 -1 10 4 10 6 0 11
-4 11 -10z m-270 -90 c0 -5 -5 -10 -11 -10 -5 0 -7 5 -4 10 3 6 8 10 11 10 2
0 4 -4 4 -10z m-556 -635 c-4 -8 -11 -15 -16 -15 -6 0 -5 6 2 15 7 8 14 15 16
15 2 0 1 -7 -2 -15z m-754 -899 c0 -3 -4 -8 -10 -11 -5 -3 -10 -1 -10 4 0 6 5
11 10 11 6 0 10 -2 10 -4z m-221 -408 c-5 -10 -13 -18 -16 -18 -3 0 -3 3 0 7
4 3 3 11 -3 17 -6 8 -3 12 10 12 15 0 16 -4 9 -18z m-2249 -2798 c0 -5 -5 -10
-11 -10 -5 0 -7 5 -4 10 3 6 8 10 11 10 2 0 4 -4 4 -10z m-455 -649 c3 -5 2
-12 -3 -15 -5 -3 -9 1 -9 9 0 17 3 19 12 6z"/>
<path d="M8116 9923 c-6 -14 -5 -15 5 -6 7 7 10 15 7 18 -3 3 -9 -2 -12 -12z"/>
<path d="M10454 11776 c-3 -8 -1 -23 5 -33 6 -10 11 -12 11 -5 0 6 5 12 11 12
6 0 9 -9 6 -20 -4 -17 -2 -18 15 -9 15 8 23 8 32 -1 8 -8 7 -10 -5 -5 -10 4
-19 0 -22 -9 -8 -20 16 -21 32 -3 8 11 7 18 -7 31 -10 9 -22 13 -27 9 -4 -5
-6 -1 -3 8 7 18 -23 23 -34 5 -6 -8 -8 -7 -8 1 0 7 8 17 18 22 16 10 16 10 -1
11 -10 0 -20 -6 -23 -14z"/>
<path d="M10544 11694 c-13 -11 -15 -17 -6 -20 6 -3 10 -10 6 -15 -3 -5 -2 -9
3 -8 20 3 34 -2 28 -11 -3 -5 -1 -10 5 -10 6 0 8 -4 5 -10 -3 -5 2 -10 12 -10
15 0 16 -2 3 -11 -12 -8 -10 -9 7 -4 19 5 22 3 16 -11 -5 -13 -3 -16 10 -11 9
3 19 1 23 -5 4 -6 3 -8 -4 -4 -6 3 -14 2 -17 -4 -4 -6 -1 -9 6 -8 7 2 13 -1
14 -7 1 -21 18 -36 32 -30 13 4 14 3 3 -10 -11 -13 -10 -14 4 -9 10 4 16 1 16
-7 1 -8 10 -25 21 -38 15 -18 23 -21 31 -13 12 12 10 13 -14 16 -6 0 -13 8
-15 16 -4 13 -3 13 6 0 6 -8 11 -11 11 -6 0 5 7 3 15 -4 14 -11 14 -15 1 -35
-14 -21 -14 -23 4 -18 13 4 20 0 20 -10 0 -8 8 -21 18 -28 9 -7 14 -10 10 -5
-4 5 -3 17 2 27 8 14 6 19 -9 24 -10 3 -22 16 -25 29 -3 12 -17 29 -31 36 -14
8 -24 19 -21 26 3 9 -1 11 -11 7 -13 -5 -15 -2 -11 15 4 12 2 20 -2 17 -5 -3
-16 -2 -25 1 -13 5 -14 8 -3 15 10 7 9 9 -4 9 -9 0 -20 9 -23 20 -3 11 -13 20
-21 20 -8 0 -12 5 -9 10 3 6 -2 10 -11 10 -10 0 -15 3 -11 6 3 3 -5 18 -18 32
-13 14 -22 29 -19 34 8 12 0 10 -22 -8z m146 -160 c0 -8 -19 -13 -24 -6 -3 5
1 9 9 9 8 0 15 -2 15 -3z"/>
<path d="M10039 11561 c9 -16 8 -18 -8 -14 -10 3 -22 -1 -26 -8 -5 -8 -4 -10
3 -5 7 4 12 3 12 -2 0 -14 29 -10 34 5 4 8 11 11 18 7 7 -4 4 2 -6 14 -24 27
-40 29 -27 3z"/>
<path d="M9989 11512 c0 -4 -2 -15 -4 -24 -2 -10 3 -18 11 -18 8 0 14 7 14 16
0 9 5 12 11 8 7 -4 10 -1 7 6 -4 14 -37 23 -39 12z"/>
<path d="M9945 11460 c-4 -6 -11 -7 -17 -4 -7 4 -8 2 -4 -4 4 -7 3 -12 -2 -12
-16 0 -9 -27 10 -39 10 -6 18 -8 17 -4 -1 5 0 22 1 38 1 19 4 24 7 12 4 -14 8
-16 19 -6 7 6 11 15 8 20 -7 12 -31 11 -39 -1z"/>
<path d="M9892 11409 c2 -8 -4 -14 -13 -13 -9 1 -15 -7 -15 -20 1 -12 -4 -20
-12 -18 -7 1 -17 -9 -22 -24 -6 -14 -14 -22 -20 -19 -6 3 -7 -1 -4 -9 3 -9 1
-16 -5 -16 -6 0 -11 -6 -11 -14 0 -8 -5 -18 -12 -22 -7 -4 -8 -3 -4 4 4 7 2
12 -5 12 -7 0 -9 -8 -6 -21 4 -16 3 -18 -8 -9 -9 8 -15 8 -20 0 -3 -5 -3 -10
2 -10 4 0 0 -5 -9 -11 -10 -5 -18 -14 -18 -19 0 -5 16 0 35 11 19 11 39 18 45
14 6 -4 7 1 3 11 -5 13 -3 15 7 9 9 -5 11 -4 6 3 -4 7 -2 12 4 12 6 0 9 4 5 9
-3 5 -1 12 5 16 6 4 7 11 4 17 -4 7 -2 8 4 4 6 -4 9 -14 6 -24 -3 -9 3 -2 13
16 11 18 22 30 25 27 3 -4 5 0 5 9 -1 8 2 15 6 15 8 0 50 43 45 45 -2 1 -11 8
-21 16 -16 11 -18 11 -15 -1z m18 -23 c0 -2 -7 -7 -16 -10 -8 -3 -12 -2 -9 4
6 10 25 14 25 6z"/>
<path d="M10830 11385 c-7 -8 -9 -15 -5 -15 4 0 2 -6 -4 -13 -8 -10 -7 -14 4
-14 8 0 15 5 15 10 0 6 3 7 6 4 4 -4 1 -14 -7 -24 -9 -11 -10 -14 -1 -9 6 4
12 2 12 -3 0 -6 7 -11 15 -11 9 0 12 -6 9 -15 -4 -8 -1 -16 5 -16 30 -4 73
-20 68 -26 -3 -2 -15 1 -28 7 -19 11 -21 10 -16 -5 4 -9 7 -18 7 -21 0 -2 7
-1 15 2 10 4 13 2 10 -8 -4 -9 2 -14 15 -15 21 -2 27 11 10 22 -6 4 -8 11 -5
16 4 5 -1 12 -9 15 -9 3 -13 10 -10 15 3 5 2 9 -3 8 -21 -4 -43 2 -43 12 0 5
4 8 8 5 5 -3 9 1 9 9 0 8 -2 13 -4 11 -7 -7 -63 56 -57 65 9 15 -2 10 -16 -6z
m45 -44 c3 -5 2 -12 -3 -15 -5 -3 -9 1 -9 9 0 17 3 19 12 6z"/>
<path d="M10981 11222 c0 -7 -11 -17 -23 -22 -19 -7 -20 -9 -4 -9 13 -1 16 -6
12 -18 -4 -10 -4 -14 0 -10 4 4 13 2 21 -5 11 -9 18 -7 31 8 9 10 13 15 8 12
-11 -9 -32 12 -39 38 -2 10 -5 13 -6 6z m9 -37 c7 -9 8 -15 2 -15 -5 0 -12 7
-16 15 -3 8 -4 15 -2 15 2 0 9 -7 16 -15z"/>
<path d="M9735 11198 c-11 -7 -26 -13 -33 -14 -8 -2 -22 -10 -33 -20 -15 -13
-16 -21 -7 -38 9 -17 8 -19 -3 -8 -18 16 -29 15 -29 -4 0 -8 -3 -13 -7 -11 -5
3 -17 -5 -28 -16 -11 -11 -13 -16 -5 -12 8 4 5 -2 -8 -14 -19 -19 -21 -25 -11
-38 11 -13 14 -13 26 3 7 9 10 21 7 25 -3 5 2 6 10 3 9 -3 16 -1 16 5 0 6 11
21 25 33 13 11 22 26 18 31 -4 6 2 8 15 5 18 -5 20 -3 12 16 -6 17 -5 23 5 23
8 0 12 -4 9 -9 -3 -4 -1 -8 4 -8 5 0 12 9 15 21 4 13 10 18 18 13 7 -4 10 -3
5 4 -3 5 0 13 6 15 7 3 9 6 3 6 -5 0 -19 -5 -30 -11z m-51 -46 c3 -5 -1 -9 -9
-9 -8 0 -12 4 -9 9 3 4 7 8 9 8 2 0 6 -4 9 -8z m-54 -72 c0 -5 -4 -10 -10 -10
-5 0 -10 5 -10 10 0 6 5 10 10 10 6 0 10 -4 10 -10z m-30 -34 c0 -3 -4 -8 -10
-11 -5 -3 -10 -1 -10 4 0 6 5 11 10 11 6 0 10 -2 10 -4z"/>
<path d="M11005 11143 c-19 -15 -19 -15 -1 -9 15 5 17 2 13 -14 -4 -17 -3 -18
16 -8 21 11 21 10 7 -7 -9 -11 -10 -16 -2 -11 8 5 12 0 12 -15 0 -18 3 -19 15
-9 10 9 12 17 5 30 -5 9 -6 21 -2 25 4 3 3 6 -3 5 -5 -1 -17 -2 -25 -1 -12 1
-12 3 -2 10 11 7 11 9 0 13 -8 3 -23 -1 -33 -9z"/>
<path d="M11087 11091 c2 -2 -2 -10 -9 -18 -9 -11 -7 -20 8 -40 10 -14 24 -26
29 -27 19 -2 14 39 -8 64 -12 14 -21 23 -20 21z m24 -38 c10 -11 10 -14 2 -9
-7 4 -13 3 -13 -1 0 -5 6 -15 13 -23 10 -12 9 -12 -6 0 -10 7 -16 19 -13 26 3
7 0 15 -7 18 -8 3 -8 5 -1 5 6 1 18 -7 25 -16z"/>
<path d="M9537 11030 c10 -11 8 -17 -9 -31 -11 -10 -25 -16 -31 -12 -5 3 -7 1
-3 -5 8 -13 -22 -44 -35 -37 -5 4 -6 -1 -3 -10 5 -11 2 -14 -12 -9 -15 5 -16
4 -4 -5 17 -11 10 -21 -17 -25 -10 -2 -18 -7 -18 -13 0 -15 -63 -71 -72 -64
-4 3 1 -4 11 -16 22 -27 31 -29 22 -7 -5 12 -2 15 9 10 9 -3 13 -2 10 4 -6 9
8 14 28 11 5 -1 6 3 2 9 -3 5 -1 10 6 10 7 0 9 3 6 6 -4 4 -15 1 -24 -7 -16
-13 -17 -12 -4 4 7 9 22 17 32 17 10 0 21 5 25 12 5 7 3 8 -5 3 -10 -5 -9 -2
0 13 7 12 17 18 21 16 4 -3 8 -1 8 5 0 6 6 8 14 5 10 -4 13 3 11 25 -1 17 1
28 6 25 5 -3 7 -9 4 -14 -3 -5 0 -12 7 -16 7 -4 10 -3 5 1 -4 5 1 17 10 28 11
12 12 17 4 12 -10 -5 -12 -4 -7 3 4 7 14 12 22 12 22 0 17 24 -8 39 -17 10
-20 10 -11 1z"/>
<path d="M11136 11011 c-9 -13 -3 -60 6 -55 5 3 11 -2 14 -10 3 -9 10 -13 15
-10 5 2 3 13 -3 24 -7 10 -16 16 -22 13 -5 -4 -6 -1 -1 6 4 7 10 9 14 4 3 -4
17 -21 31 -38 14 -16 17 -23 8 -16 -16 12 -18 11 -16 -12 2 -22 5 -24 23 -15
17 10 18 9 8 -3 -9 -11 -8 -18 1 -31 7 -10 17 -14 21 -10 4 4 6 0 3 -8 -8 -24
13 -38 39 -26 28 13 29 22 3 22 -11 0 -20 -5 -20 -10 0 -5 -3 -7 -6 -4 -3 4
-1 16 6 27 10 20 9 21 -14 17 -14 -3 -28 0 -32 5 -3 5 -2 9 3 8 26 -5 32 2 16
19 -10 10 -25 29 -33 41 -27 40 -59 71 -64 62z"/>
<path d="M11266 10804 c-3 -8 -2 -12 4 -9 11 7 32 -29 22 -40 -4 -5 -1 -5 6
-1 7 4 12 1 12 -9 0 -9 5 -13 10 -10 6 3 10 -4 11 -17 l0 -23 9 23 c12 29 18
28 12 -3 -2 -15 0 -25 7 -25 6 0 11 -9 11 -21 0 -15 4 -19 16 -15 9 3 18 6 20
6 2 0 4 5 4 11 0 5 -5 7 -11 4 -6 -4 -9 0 -7 11 2 11 -2 18 -9 17 -7 -2 -13 6
-13 17 0 11 -7 23 -15 26 -8 4 -12 11 -8 18 4 6 -2 4 -12 -4 -11 -9 -16 -10
-11 -2 4 7 2 12 -6 12 -9 0 -9 3 2 10 13 8 13 10 -1 10 -9 0 -19 7 -23 15 -7
19 -22 19 -30 -1z"/>
<path d="M9319 10793 c-1 -4 -1 -12 0 -17 1 -5 -7 -6 -19 -3 -11 3 -18 1 -15
-4 3 -4 -3 -14 -15 -21 -21 -13 -28 -38 -10 -38 6 0 10 -5 10 -10 0 -6 -10 -4
-23 5 -21 13 -23 13 -24 -4 -2 -24 50 -23 55 2 2 10 8 14 14 11 7 -4 8 -2 4 4
-6 11 6 16 27 13 4 0 7 4 7 9 0 6 -5 10 -12 10 -6 0 -8 3 -4 8 4 4 13 7 19 7
16 0 15 27 0 33 -7 2 -14 0 -14 -5z m-19 -36 c0 -2 -10 -12 -22 -23 l-23 -19
19 23 c18 21 26 27 26 19z"/>
<path d="M9204 10675 c1 -8 8 -21 16 -28 10 -9 11 -9 6 1 -5 7 -1 12 10 12 16
0 11 15 -4 15 -4 0 -12 4 -19 8 -7 4 -10 1 -9 -8z"/>
<path d="M9175 10659 c-6 -8 -4 -10 5 -4 9 6 11 4 6 -4 -5 -7 -15 -10 -23 -7
-8 3 -11 1 -8 -5 9 -13 -14 -41 -28 -32 -6 4 -7 1 -2 -7 6 -10 4 -12 -9 -7
-10 4 -15 3 -11 -3 8 -12 -32 -33 -48 -24 -9 5 -9 4 1 -7 15 -16 16 -33 1 -23
-7 4 -10 1 -7 -7 3 -8 13 -16 23 -18 13 -2 16 1 11 14 -5 14 -2 16 13 12 15
-3 17 0 13 17 -5 19 -4 19 11 7 15 -12 17 -12 11 4 -6 14 -4 16 6 10 9 -5 11
-4 6 3 -4 7 -1 12 8 12 9 0 16 9 16 20 0 11 5 20 11 20 5 0 7 -6 3 -12 -4 -7
2 -5 12 5 17 16 17 18 2 33 -12 12 -17 13 -23 3z"/>
<path d="M11394 10638 c3 -7 9 -21 12 -31 6 -16 8 -16 18 -1 11 14 13 14 27
-3 13 -16 12 -17 -2 -5 -14 10 -17 9 -21 -6 -4 -12 1 -18 13 -19 24 -2 34 14
20 31 -6 7 -8 15 -5 19 3 3 -6 4 -20 3 -21 -3 -24 -1 -15 10 9 11 7 14 -11 14
-14 0 -20 -5 -16 -12z"/>
<path d="M11474 10572 c-14 -9 -27 -45 -14 -37 6 3 10 -2 10 -12 0 -14 2 -15
9 -5 7 11 10 10 15 -3 9 -24 8 -27 -6 -20 -7 4 -2 -3 11 -14 13 -12 19 -21 15
-21 -5 -1 1 -9 13 -19 12 -10 19 -21 16 -25 -4 -3 -2 -6 4 -6 6 0 17 7 24 16
11 14 10 18 -6 30 -14 11 -22 11 -34 2 -9 -7 -7 -2 4 11 11 14 16 22 10 19 -5
-3 -16 0 -23 8 -10 11 -10 14 0 14 7 0 2 7 -10 16 -13 9 -21 22 -18 30 6 16
-6 25 -20 16z m90 -134 c-3 -4 -11 -5 -19 -1 -21 7 -19 12 4 10 11 0 18 -5 15
-9z"/>
<path d="M9030 10517 c0 -11 -4 -15 -12 -11 -7 4 -8 3 -4 -4 4 -7 1 -12 -6
-12 -17 0 -69 -45 -61 -54 3 -3 -2 -6 -12 -6 -10 0 -15 -3 -12 -7 11 -10 -13
-32 -29 -26 -10 3 -12 0 -8 -10 3 -10 0 -15 -12 -14 -9 1 -19 -5 -21 -13 -4
-13 -3 -13 7 0 9 12 11 12 8 1 -2 -8 -12 -15 -21 -17 -11 -1 -14 2 -10 9 4 7
0 6 -10 -1 -9 -8 -15 -19 -14 -25 1 -7 -5 -11 -14 -9 -12 2 -15 -4 -12 -21 3
-13 11 -24 18 -24 8 0 11 7 7 15 -4 11 -1 13 8 7 9 -5 11 -4 6 3 -4 7 -2 12 4
12 6 0 8 5 4 13 -5 7 0 6 11 -3 15 -12 17 -12 10 -1 -6 11 -4 13 8 8 10 -4 16
-2 14 5 -1 7 5 12 13 13 8 0 14 8 12 18 -2 11 2 15 13 11 10 -4 15 0 15 11 0
11 5 15 15 12 8 -4 17 -1 21 5 4 7 3 8 -4 4 -22 -13 -12 13 10 28 17 12 24 13
31 3 6 -9 7 -8 4 3 -2 8 -12 13 -23 12 -10 -2 -16 -1 -12 3 4 4 18 9 30 10 38
4 39 5 32 17 -5 8 -2 9 9 5 21 -8 22 3 2 29 -13 18 -14 18 -15 1z"/>
<path d="M11559 10403 c-10 -11 -10 -14 -1 -9 7 4 12 1 12 -8 0 -9 8 -16 18
-16 10 0 13 -3 7 -8 -7 -4 -2 -16 12 -31 l23 -24 0 34 c0 27 -3 31 -11 19 -9
-12 -10 -11 -6 8 3 12 2 20 -3 17 -4 -3 -14 3 -21 12 -12 14 -12 16 0 8 10 -5
12 -4 7 3 -10 17 -21 15 -37 -5z"/>
<path d="M11642 10345 c4 -4 1 -20 -8 -36 -13 -25 -13 -28 1 -23 18 7 20 -7 3
-26 -11 -12 -10 -12 5 -1 15 12 17 11 17 -8 0 -11 4 -21 10 -21 5 0 12 -11 16
-25 3 -14 10 -23 14 -20 10 6 22 -24 15 -35 -3 -5 4 -12 16 -15 13 -5 19 -13
16 -24 -2 -11 1 -18 9 -18 8 0 14 5 14 10 0 6 3 7 6 4 4 -4 2 -13 -5 -21 -9
-11 -7 -15 8 -19 24 -6 33 13 14 31 -7 8 -10 19 -6 25 4 6 0 8 -10 4 -12 -5
-15 0 -11 21 3 23 2 24 -6 10 -6 -10 -16 -18 -23 -18 -8 0 -6 4 3 11 12 8 12
12 2 16 -10 4 -10 8 0 21 10 12 10 14 1 8 -8 -4 -13 -2 -13 4 0 6 -3 9 -7 7
-5 -2 -17 5 -28 17 -11 11 -16 18 -10 14 14 -12 37 -10 30 2 -4 6 -11 8 -16 5
-8 -6 -13 8 -6 19 1 3 -9 16 -22 29 -12 14 -20 30 -17 36 4 5 1 13 -6 17 -7 4
-10 4 -6 -1z"/>
<path d="M8345 10331 c-3 -5 -2 -12 3 -15 5 -3 9 1 9 9 0 17 -3 19 -12 6z"/>
<path d="M11590 10321 c0 -6 4 -13 10 -16 6 -3 7 1 4 9 -7 18 -14 21 -14 7z"/>
<path d="M11805 10060 c-3 -5 -13 -6 -23 -3 -12 4 -11 1 5 -14 13 -11 20 -23
16 -27 -3 -3 1 -6 9 -6 11 0 15 -9 13 -30 -2 -25 0 -28 11 -19 19 15 18 59 -1
59 -9 0 -12 6 -9 15 4 8 1 15 -6 15 -6 0 -8 5 -5 10 3 6 4 10 1 10 -3 0 -7 -4
-11 -10z"/>
<path d="M8497 10053 c-4 -3 -7 -11 -7 -17 0 -6 5 -5 12 2 6 6 9 14 7 17 -3 3
-9 2 -12 -2z"/>
<path d="M11857 9973 c-10 -16 -2 -56 12 -61 9 -3 11 0 6 8 -5 9 -4 11 3 6 7
-4 12 -1 12 6 -1 18 -27 51 -33 41z"/>
<path d="M11900 9922 c0 -5 -10 -14 -22 -21 -16 -8 -17 -10 -4 -6 17 5 17 3 5
-12 -9 -11 -10 -14 -1 -9 7 4 12 1 12 -8 0 -9 4 -16 10 -16 5 0 7 8 4 18 -5
14 -4 15 5 2 6 -9 6 -19 1 -24 -15 -15 1 -37 21 -31 11 4 19 2 19 -4 0 -6 4
-11 10 -11 5 0 7 7 4 15 -4 8 -15 15 -25 15 -17 0 -18 3 -9 20 8 16 7 22 -8
31 -12 7 -17 19 -14 31 2 10 2 18 -2 18 -3 0 -6 -4 -6 -8z"/>
<path d="M11933 9786 c1 -14 8 -28 15 -31 7 -3 10 -10 6 -16 -4 -7 -3 -9 3 -6
6 4 14 0 17 -9 4 -10 2 -13 -7 -8 -6 4 -4 -2 6 -13 9 -11 17 -24 17 -30 0 -16
30 -24 48 -13 14 8 13 9 -8 10 -20 0 -22 2 -10 10 11 7 11 10 2 10 -7 0 -10 5
-7 10 3 6 -1 13 -9 16 -9 3 -16 15 -16 26 0 10 -6 18 -13 16 -7 -2 -14 2 -15
7 -1 6 2 10 7 10 5 0 13 3 17 8 4 4 -2 7 -12 7 -11 0 -25 5 -31 11 -8 8 -11 4
-10 -15z m77 -80 c0 -3 -4 -8 -10 -11 -5 -3 -10 -1 -10 4 0 6 5 11 10 11 6 0
10 -2 10 -4z"/>
<path d="M8090 9725 c0 -14 -12 -20 -33 -16 -5 1 -6 -3 -2 -8 3 -6 13 -8 23
-5 15 5 15 4 -1 -6 -10 -6 -14 -16 -10 -23 4 -7 -1 -6 -10 2 -15 12 -17 12
-11 -3 4 -10 1 -16 -7 -16 -7 0 -10 -3 -6 -6 8 -8 -16 -33 -26 -27 -4 2 -7 1
-6 -4 4 -16 -21 -64 -31 -58 -5 3 -7 0 -5 -7 9 -22 42 -19 48 4 4 12 10 17 17
13 9 -6 9 -2 2 12 -7 13 -7 24 0 34 8 11 9 11 4 -3 -3 -10 0 -20 6 -24 7 -4 8
-3 4 4 -4 7 -3 12 3 12 6 0 7 7 4 17 -5 12 -3 14 8 8 12 -8 12 -6 1 8 -12 14
-11 16 8 12 13 -2 20 -2 17 1 -3 4 3 22 13 42 19 34 18 52 -1 52 -5 0 -9 -7
-9 -15z"/>
<path d="M12011 9635 c16 -9 18 -14 8 -18 -9 -3 -6 -6 8 -6 12 -1 25 -6 29
-12 4 -8 -1 -9 -17 -4 -16 4 -20 3 -11 -3 8 -5 14 -12 14 -15 0 -26 13 -47 30
-47 10 0 16 -5 13 -10 -4 -6 -12 -7 -18 -3 -9 5 -9 3 -1 -8 6 -8 10 -21 9 -30
-2 -9 3 -16 9 -16 7 0 13 5 14 11 0 6 3 21 6 34 2 12 1 22 -4 22 -5 0 -7 8 -4
18 4 10 2 13 -3 7 -4 -5 -15 -11 -23 -13 -10 -3 -9 3 5 19 11 12 14 19 8 15
-12 -7 -18 12 -14 37 1 5 -3 6 -9 2 -5 -3 -10 2 -10 13 0 14 -7 19 -31 19 -30
0 -30 -1 -8 -12z"/>
<path d="M7950 9526 c0 -9 5 -16 10 -16 6 0 10 4 10 9 0 6 -4 13 -10 16 -5 3
-10 -1 -10 -9z"/>
<path d="M7976 9515 c-4 -12 -12 -14 -28 -9 -20 6 -21 5 -9 -10 12 -14 12 -16
-4 -9 -15 5 -17 3 -12 -12 7 -16 5 -16 -9 -4 -16 13 -16 12 -5 -10 8 -14 9
-21 2 -17 -6 4 -18 3 -28 -2 -14 -9 -14 -10 6 -17 11 -3 19 -11 16 -16 -4 -5
-1 -9 5 -9 7 0 10 6 7 13 -3 8 3 20 13 27 11 8 17 17 14 21 -2 4 5 11 17 14
11 4 18 9 15 12 -3 4 -1 12 6 20 6 7 9 16 6 19 -3 3 -8 -2 -12 -11z"/>
<path d="M12110 9485 c-7 -8 -9 -15 -5 -15 4 0 2 -6 -4 -14 -8 -10 -9 -16 -1
-21 6 -3 7 -12 4 -18 -5 -8 -3 -8 7 1 18 16 26 15 33 -4 5 -14 4 -15 -9 -4
-12 10 -15 10 -15 -4 0 -9 6 -16 13 -16 8 0 7 -4 -3 -10 -12 -8 -12 -10 -1
-10 8 0 11 -3 8 -7 -4 -3 2 -13 14 -21 16 -11 17 -17 8 -28 -7 -8 -7 -14 -1
-14 5 0 12 -7 15 -14 4 -11 1 -13 -11 -9 -14 6 -15 5 -2 -9 8 -9 19 -13 24
-10 5 3 7 -2 3 -11 -3 -9 -1 -20 5 -23 8 -5 5 -10 -8 -15 -17 -6 -16 -8 9 -14
30 -8 33 -15 15 -33 -9 -9 -8 -12 8 -12 10 0 15 -4 9 -8 -13 -9 -16 -42 -4
-42 5 0 9 -7 9 -15 0 -8 5 -15 11 -15 6 0 8 8 5 18 -6 15 -5 15 8 -1 9 -12 16
-14 21 -8 3 6 1 11 -5 11 -6 0 -9 4 -5 9 3 6 -3 8 -14 6 -17 -3 -18 0 -10 28
11 39 11 40 -1 32 -5 -3 -10 0 -10 9 0 8 3 16 8 19 4 2 2 3 -5 1 -18 -4 -24 8
-10 24 10 13 9 14 -2 7 -11 -6 -13 -4 -8 8 3 10 2 17 -4 17 -6 0 -8 4 -5 9 4
5 1 11 -5 13 -6 2 -12 20 -13 40 0 20 -3 35 -6 33 -3 -2 -11 3 -18 11 -7 8 -8
14 -2 14 5 0 10 5 10 11 0 5 -5 7 -12 3 -8 -5 -9 -2 -5 10 4 10 -1 24 -13 36
-11 11 -15 20 -9 20 8 0 8 4 -1 15 -6 8 -9 19 -5 25 9 15 -1 12 -15 -5z"/>
<path d="M7867 9404 c2 -7 -4 -15 -15 -18 -24 -8 -23 -38 1 -42 9 -1 21 4 28
12 7 9 8 14 1 14 -6 0 -12 -5 -14 -12 -3 -8 -7 -6 -11 5 -3 9 -3 16 1 16 21
-4 32 3 32 19 0 10 -6 19 -14 19 -8 0 -12 -6 -9 -13z"/>
<path d="M7814 9353 c4 -8 2 -13 -6 -13 -8 0 -7 -6 5 -17 12 -12 20 -14 27 -7
7 7 4 17 -11 30 -13 10 -19 13 -15 7z"/>
<path d="M12135 9329 c-4 -6 -4 -13 -1 -16 3 -4 6 -1 6 6 0 7 5 9 12 5 7 -4 8
-3 4 4 -9 15 -13 15 -21 1z"/>
<path d="M7788 9309 c-11 -6 -15 -16 -11 -26 4 -10 2 -14 -5 -9 -6 3 -14 1
-18 -5 -3 -6 -1 -15 6 -19 8 -5 7 -9 -5 -13 -9 -4 -13 -3 -10 2 3 5 0 13 -7
17 -7 4 -10 4 -6 -1 4 -4 3 -16 -3 -27 -9 -16 -13 -17 -27 -7 -14 11 -15 11
-4 -1 6 -8 12 -18 12 -23 0 -4 -6 -5 -12 -1 -10 6 -10 5 -1 -8 7 -8 10 -18 6
-21 -3 -4 -3 -7 1 -7 14 0 33 25 28 38 -2 6 2 12 8 12 15 0 40 25 40 40 0 7 7
9 17 6 10 -4 14 -4 11 0 -4 4 -3 16 3 26 13 25 0 40 -23 27z"/>
<path d="M7675 9153 c9 -14 11 -24 5 -28 -6 -4 -9 -1 -8 5 2 7 -5 14 -14 15
-15 3 -16 0 -6 -18 10 -20 10 -21 -5 -8 -15 12 -17 11 -17 -3 0 -11 -5 -15
-12 -10 -7 4 -10 4 -6 -1 4 -4 -3 -17 -16 -29 -27 -24 -44 -66 -26 -66 6 0 8
-6 4 -12 -4 -8 -3 -10 2 -5 5 5 10 13 10 18 1 5 2 14 3 20 0 5 6 7 13 3 8 -5
9 -2 5 10 -4 11 -3 15 4 11 6 -4 13 3 16 15 3 13 11 19 20 16 8 -3 12 -2 9 3
-3 4 8 18 25 30 22 17 28 26 20 35 -6 7 -8 16 -5 19 4 3 -3 5 -15 4 -19 -1
-19 -3 -6 -24z"/>
<path d="M12240 9060 c-10 -7 -11 -10 -2 -10 6 0 12 -5 12 -11 0 -5 -6 -7 -12
-3 -8 5 -8 1 1 -10 13 -15 13 -19 0 -27 -11 -7 -10 -9 5 -9 15 0 16 -3 6 -15
-10 -12 -8 -14 7 -11 17 4 18 -2 16 -65 -1 -63 8 -89 20 -56 3 6 4 2 4 -9 -1
-12 -6 -21 -12 -20 -5 2 -7 1 -2 -1 4 -3 7 -9 7 -14 0 -6 -5 -7 -12 -3 -7 4
-8 3 -4 -5 6 -9 11 -9 21 -1 11 9 14 7 12 -9 0 -11 -4 -18 -8 -15 -4 2 -10 -3
-13 -12 -3 -9 -2 -12 4 -9 7 4 9 -10 7 -39 -2 -25 0 -46 5 -46 11 0 6 -23 -7
-32 -6 -5 -4 -12 5 -18 13 -9 13 -10 0 -10 -13 0 -13 -1 0 -10 9 -6 11 -13 5
-17 -13 -10 -14 -63 -1 -63 6 0 5 -5 -2 -12 -14 -14 -16 -32 -3 -24 11 7 8
-21 -4 -31 -4 -5 -5 -1 0 7 5 9 4 12 -1 7 -5 -5 -9 -16 -9 -25 0 -9 -6 -16
-14 -14 -12 3 -12 0 -1 -12 10 -13 10 -16 0 -16 -10 0 -10 -3 0 -15 10 -12 10
-15 -1 -15 -9 -1 -7 -6 6 -16 19 -16 19 -16 -5 -9 -14 3 -20 3 -14 -2 6 -4 16
-17 23 -28 10 -16 11 -16 7 -2 -3 11 0 20 9 23 8 4 12 10 9 15 -12 19 -14 78
-3 85 7 4 9 0 5 -14 -4 -12 -2 -23 5 -28 8 -4 9 -3 5 5 -4 6 -2 18 4 26 10 12
10 15 0 15 -9 0 -9 4 -3 13 6 6 10 30 9 52 -1 22 2 52 5 68 4 15 4 25 0 23 -4
-3 -6 31 -5 75 2 55 -1 79 -9 79 -8 0 -9 3 -1 8 12 8 14 63 2 56 -4 -3 -8 0
-8 5 0 6 5 11 11 11 6 0 3 7 -6 16 -11 12 -13 20 -5 29 7 9 6 16 -5 25 -10 8
-12 17 -5 30 6 11 5 21 -3 29 -9 9 -8 17 2 34 11 18 11 20 0 10 -20 -19 -26
-16 -31 16 -2 17 -1 28 4 25 13 -8 9 13 -5 24 -8 7 -18 7 -27 2z m64 -179 c3
-5 -1 -11 -9 -14 -9 -4 -12 -1 -8 9 6 16 10 17 17 5z"/>
<path d="M7543 9028 c-8 -14 -10 -19 -12 -43 -1 -9 -7 -12 -18 -8 -12 5 -14 3
-8 -7 6 -10 4 -12 -8 -7 -12 4 -14 2 -10 -10 4 -11 2 -14 -5 -9 -7 4 -12 1
-12 -9 0 -9 -4 -13 -10 -10 -5 3 -10 -1 -10 -9 0 -9 -5 -16 -11 -16 -5 0 -7
-4 -4 -10 3 -6 -1 -7 -9 -4 -9 3 -16 1 -16 -5 0 -6 5 -11 10 -11 6 0 10 -5 10
-11 0 -8 -5 -7 -15 1 -9 7 -19 10 -22 6 -4 -4 -1 -11 7 -16 13 -9 13 -10 0
-11 -8 -1 -19 -1 -24 0 -5 1 -6 -8 -3 -19 4 -17 3 -19 -8 -10 -9 8 -14 6 -19
-5 -3 -9 -11 -13 -17 -9 -8 4 -7 0 1 -16 11 -20 10 -21 -9 -11 -16 9 -19 9
-15 -2 2 -7 -6 -19 -21 -27 -14 -7 -25 -20 -25 -27 0 -8 -4 -12 -9 -9 -5 4 -7
-4 -4 -16 4 -19 3 -20 -6 -8 -10 14 -12 13 -15 -9 0 -6 -7 -16 -14 -23 -11
-11 -12 -10 -7 5 4 10 2 17 -4 17 -6 0 -10 -3 -10 -7 3 -21 -2 -33 -13 -31 -7
2 -12 -3 -10 -11 2 -8 -3 -11 -12 -8 -9 4 -13 1 -10 -6 5 -14 44 -21 44 -8 0
4 -6 13 -12 21 -7 8 -3 6 10 -4 12 -11 23 -16 23 -13 1 4 2 13 3 20 1 6 8 11
15 9 7 -1 10 2 6 8 -5 9 7 14 27 11 4 0 4 7 1 16 -5 12 -3 14 7 8 10 -6 12 -4
7 9 -6 14 -3 17 8 12 9 -3 13 -2 10 4 -3 6 -1 10 4 10 6 0 11 7 11 16 0 14 2
15 17 3 12 -10 15 -11 9 -1 -5 8 5 24 28 46 20 18 34 35 30 38 -3 4 4 9 15 13
12 3 21 11 21 16 0 6 4 7 10 4 6 -3 7 1 4 9 -4 11 0 16 12 16 16 0 17 2 4 10
-13 8 -12 10 3 10 10 0 17 8 17 20 0 12 5 17 13 14 8 -3 20 2 27 11 7 8 9 15
4 15 -4 0 0 6 11 13 10 8 19 28 20 45 2 35 0 38 -12 20z m-173 -242 c0 -3 -4
-8 -10 -11 -5 -3 -10 -1 -10 4 0 6 5 11 10 11 6 0 10 -2 10 -4z"/>
<path d="M12255 8941 c-3 -5 -2 -12 3 -15 5 -3 9 1 9 9 0 17 -3 19 -12 6z"/>
<path d="M6845 8820 c-3 -6 1 -7 9 -4 18 7 21 14 7 14 -6 0 -13 -4 -16 -10z"/>
<path d="M7134 8592 c4 -7 1 -12 -6 -12 -15 0 -48 -35 -48 -50 0 -5 -8 -6 -17
-3 -15 6 -16 4 -5 -9 9 -11 10 -18 2 -23 -5 -3 -10 -1 -10 6 0 10 -3 10 -12 1
-10 -10 -10 -15 2 -22 20 -13 30 -12 30 1 0 5 5 7 12 3 6 -4 9 -3 6 2 -2 5 6
19 19 31 13 12 23 19 23 15 1 -4 7 4 15 18 7 14 16 24 19 23 3 -2 6 0 6 5 0 4
-3 7 -7 7 -5 0 -14 4 -22 9 -10 6 -12 5 -7 -2z m-20 -46 c-3 -9 -10 -16 -15
-16 -5 0 -4 9 3 20 14 22 21 20 12 -4z"/>
<path d="M7010 8463 c0 -8 -4 -12 -9 -9 -5 3 -12 -1 -15 -10 -3 -8 -11 -12
-16 -9 -6 4 -10 3 -9 -2 3 -19 -2 -33 -12 -33 -5 0 -7 5 -3 12 4 7 3 8 -4 4
-7 -4 -12 -14 -12 -22 0 -8 -4 -12 -10 -9 -5 3 -10 2 -10 -3 0 -32 59 -16 84
23 11 17 23 24 33 21 13 -5 14 -4 3 9 -12 15 -4 21 23 16 17 -3 -4 17 -23 22
-13 3 -20 0 -20 -10z m-39 -76 c-10 -9 -11 -8 -5 6 3 10 9 15 12 12 3 -3 0
-11 -7 -18z"/>
<path d="M6890 8347 c0 -18 -2 -19 -11 -7 -9 12 -10 11 -6 -6 3 -16 0 -21 -11
-20 -18 3 -42 -15 -36 -26 7 -11 -44 -40 -57 -33 -8 5 -8 1 1 -15 6 -12 9 -24
6 -28 -3 -3 -6 0 -6 5 0 14 -18 11 -45 -5 -18 -11 -18 -12 7 -8 15 3 30 1 33
-4 3 -4 -3 -7 -12 -5 -10 1 -28 -4 -40 -11 -13 -8 -23 -12 -23 -8 0 4 -7 1
-16 -7 -14 -12 -14 -14 1 -25 10 -8 12 -14 6 -19 -6 -3 -11 -2 -11 3 0 15 -28
23 -36 10 -5 -7 -2 -8 6 -3 8 5 11 3 8 -6 -3 -8 -10 -14 -15 -14 -19 0 -73
-45 -73 -61 0 -8 5 -12 10 -9 6 4 8 11 5 16 -4 5 -1 9 5 9 7 0 10 -7 7 -15 -4
-8 -1 -17 5 -21 6 -4 8 -3 4 4 -3 6 1 17 9 25 20 20 19 28 -2 21 -15 -5 -16
-4 -3 5 11 8 18 7 28 -6 11 -16 12 -15 12 1 0 16 2 17 18 5 15 -13 16 -12 4 3
-14 18 -6 27 19 23 18 -3 21 23 5 45 -7 10 -3 9 10 -2 26 -23 41 -23 23 -1
-12 15 -12 16 8 11 14 -4 22 -2 20 6 -1 6 4 10 11 8 7 -1 17 9 24 23 6 13 15
22 20 19 5 -3 7 0 6 8 -2 7 3 12 10 11 6 -2 12 4 12 13 0 8 4 12 10 9 6 -3 7
1 4 10 -5 11 -2 14 12 8 12 -4 15 -3 10 5 -4 7 -2 13 3 13 6 1 17 2 24 3 6 1
11 7 10 14 -2 7 1 12 5 12 5 0 15 6 23 13 8 6 13 11 11 10 -2 -1 -15 2 -28 7
-21 8 -24 7 -24 -13z"/>
<path d="M12245 8295 c2 -14 -2 -25 -8 -26 -7 0 -3 -4 8 -8 28 -12 34 -5 26
26 -9 35 -29 42 -26 8z"/>
<path d="M12221 8239 c9 -5 10 -9 3 -9 -7 0 -14 -6 -17 -14 -4 -9 0 -13 11
-11 9 2 21 4 25 4 5 1 5 6 2 11 -3 6 1 10 10 10 9 0 14 4 11 9 -3 5 -17 9 -32
9 -18 0 -22 -3 -13 -9z"/>
<path d="M12210 8189 c-14 -4 -21 -7 -16 -8 6 -1 1 -8 -10 -16 -15 -11 -16
-15 -4 -15 8 0 3 -7 -13 -16 -15 -8 -25 -19 -22 -24 9 -15 17 -12 9 3 -4 6 -3
8 1 4 13 -11 15 -36 4 -43 -5 -3 -8 0 -7 7 2 6 -3 14 -11 17 -8 2 -11 0 -7 -6
3 -6 0 -12 -6 -15 -9 -3 -7 -7 5 -12 23 -10 47 11 47 41 0 22 10 29 33 25 5
-1 5 4 1 10 -3 6 0 15 7 20 12 7 11 9 -1 10 -8 0 -4 4 10 8 14 4 20 9 15 12
-6 3 -21 3 -35 -2z"/>
<path d="M6240 8165 c-13 -14 -22 -27 -19 -29 2 -2 14 10 27 25 29 36 24 38
-8 4z"/>
<path d="M12098 8050 c-15 -9 -17 -44 -3 -58 12 -12 16 8 6 27 -10 17 -9 20 4
15 8 -3 13 -10 10 -14 -3 -5 -1 -11 4 -15 6 -3 8 3 6 15 -3 14 1 20 13 20 15
0 15 2 2 10 -18 12 -21 12 -42 0z"/>
<path d="M6530 8029 c0 -5 -4 -7 -10 -4 -5 3 -10 -1 -10 -10 0 -10 -5 -13 -12
-9 -7 4 -4 -2 6 -14 24 -28 29 -28 20 0 -6 21 -5 22 11 8 11 -8 16 -10 12 -3
-4 7 1 14 13 18 28 9 25 20 -5 23 -14 1 -25 -3 -25 -9z"/>
<path d="M12055 8000 c-3 -5 -1 -10 4 -10 6 0 11 -4 11 -8 0 -5 -9 -8 -20 -8
-22 1 -29 -17 -8 -22 9 -2 8 0 -2 8 -10 8 -11 10 -2 8 19 -5 10 -23 -10 -21
-9 1 -21 -4 -28 -12 -10 -12 -8 -13 9 -10 12 2 19 0 16 -5 -6 -9 -24 -8 -42 3
-8 5 -10 -1 -9 -18 2 -14 -4 -30 -13 -37 -14 -11 -14 -11 -3 3 10 14 10 18 -3
22 -8 4 -14 1 -12 -6 1 -7 -4 -11 -12 -9 -12 3 -12 0 -2 -12 10 -12 9 -14 -11
-8 -21 5 -22 4 -9 -12 8 -9 10 -16 5 -15 -27 5 -43 -2 -38 -16 4 -11 2 -13 -9
-10 -8 4 -24 -6 -39 -23 -22 -27 -62 -49 -80 -44 -3 1 -5 -10 -3 -23 1 -14 -2
-22 -8 -18 -5 3 -13 0 -17 -7 -5 -7 -19 -14 -32 -16 -12 -1 -24 -3 -26 -3 -1
-1 2 -10 8 -21 6 -11 15 -18 21 -15 5 4 6 12 2 18 -4 7 1 6 10 -2 15 -12 17
-12 11 4 -5 13 -4 16 4 11 7 -4 12 -2 12 3 0 6 5 11 11 11 5 0 7 -5 3 -12 -5
-7 -3 -8 5 -3 8 4 11 19 8 34 -4 21 -3 23 6 9 10 -15 13 -15 39 3 16 12 25 25
21 31 -4 8 0 9 11 5 10 -4 15 -3 11 3 -3 6 2 10 12 10 15 0 15 2 3 9 -8 6 -19
7 -25 4 -5 -4 -6 -2 -2 3 11 12 40 11 49 -1 4 -6 8 -2 8 9 0 12 5 16 14 13 10
-4 13 -1 9 9 -3 7 0 14 6 14 6 0 21 11 33 25 12 14 28 23 34 21 8 -3 11 2 9
15 -3 16 0 19 17 13 11 -3 18 -2 15 3 -3 5 7 22 24 37 16 15 29 32 29 37 0 6
5 7 11 4 6 -4 5 2 -3 14 -14 23 -24 26 -33 11z m-268 -275 c0 -8 -4 -12 -9 -9
-5 3 -6 10 -3 15 9 13 12 11 12 -6z"/>
<path d="M6480 7985 c8 -10 10 -16 3 -12 -14 9 -45 -2 -37 -14 3 -5 -4 -9 -14
-9 -15 0 -19 -5 -15 -20 6 -22 18 -26 28 -9 4 6 14 8 22 4 13 -4 14 -3 3 10
-12 14 -5 20 22 17 18 -3 15 29 -5 39 -21 12 -21 11 -7 -6z"/>
<path d="M6390 7919 c0 -6 -7 -8 -17 -4 -14 5 -15 3 -6 -6 6 -6 23 -13 37 -14
22 -3 24 -1 13 16 -13 21 -27 25 -27 8z"/>
<path d="M6187 7869 c-4 -16 -3 -18 9 -8 16 13 19 29 5 29 -5 0 -11 -9 -14
-21z"/>
<path d="M6337 7880 c18 -17 50 -20 50 -6 0 10 -10 14 -29 14 -16 -1 -25 -4
-21 -8z"/>
<path d="M6223 7848 c16 -25 30 -27 33 -3 1 8 -2 13 -6 10 -5 -3 -11 -1 -15 5
-3 5 -11 10 -17 10 -6 0 -4 -9 5 -22z"/>
<path d="M6314 7862 c2 -4 -4 -14 -16 -21 -11 -7 -17 -8 -14 -2 4 5 1 13 -5
17 -7 4 -9 3 -5 -4 3 -6 2 -13 -4 -17 -6 -4 -8 -11 -4 -16 3 -5 2 -9 -3 -8
-19 3 -34 -2 -29 -9 3 -5 -9 -8 -26 -7 l-31 2 22 -19 c21 -16 20 -23 -1 -19
-5 0 -8 -6 -8 -14 0 -21 16 -19 40 7 11 12 20 16 20 10 0 -7 7 -12 16 -12 9 0
12 5 8 13 -6 9 -5 9 7 0 12 -10 15 -8 16 8 1 11 -2 17 -7 14 -5 -3 -12 -1 -15
5 -4 6 -1 9 6 8 7 -2 13 4 14 12 0 9 8 14 19 12 12 -2 16 1 10 9 -5 9 -2 10 9
6 21 -8 34 12 16 24 -18 11 -42 12 -35 1z"/>
<path d="M6171 7734 c4 -23 -2 -45 -11 -39 -6 4 -7 -1 -3 -11 4 -11 3 -15 -5
-10 -15 9 -26 -12 -13 -28 6 -7 8 -16 4 -20 -4 -4 0 -4 10 0 10 3 17 17 17 31
0 16 4 22 12 17 6 -4 8 -3 5 3 -4 5 5 16 18 23 14 7 25 17 25 22 0 13 -12 9
-27 -9 -8 -10 -12 -13 -9 -7 3 7 -1 18 -10 25 -8 7 -14 8 -13 3z"/>
<path d="M5790 7660 c0 -5 5 -10 11 -10 5 0 7 5 4 10 -3 6 -8 10 -11 10 -2 0
-4 -4 -4 -10z"/>
<path d="M11630 7635 c0 -12 5 -15 16 -11 13 5 14 4 6 -7 -9 -10 -8 -14 2 -14
7 0 13 10 12 21 -1 25 -36 35 -36 11z"/>
<path d="M6111 7633 c3 -21 -2 -33 -13 -27 -6 4 -8 3 -5 -3 9 -14 -22 -55 -35
-47 -6 4 -8 2 -4 -4 3 -6 15 -9 26 -7 12 2 18 0 15 -6 -4 -5 -11 -7 -16 -4 -5
4 -12 -1 -15 -9 -3 -9 -10 -14 -14 -11 -5 3 -11 1 -14 -4 -3 -5 2 -12 12 -16
12 -4 24 2 39 21 12 15 21 30 21 33 -3 28 4 40 19 34 11 -4 14 -3 9 5 -4 7 -2
12 6 12 10 0 10 2 -1 9 -7 5 -10 14 -7 20 4 6 0 11 -8 11 -9 0 -15 -3 -15 -7z"/>
<path d="M11605 7620 c-4 -6 -11 -8 -16 -5 -5 3 -6 -2 -2 -11 5 -13 3 -15 -7
-9 -9 6 -11 4 -5 -5 6 -10 3 -12 -13 -8 -12 4 -20 3 -17 -2 3 -4 -9 -13 -26
-20 -32 -14 -27 -32 10 -35 13 -1 18 4 16 17 -4 21 11 33 21 17 5 -8 3 -9 -6
-4 -9 6 -11 4 -5 -5 6 -10 10 -10 19 2 6 8 16 16 21 17 6 2 9 8 7 13 -2 6 4 8
13 5 10 -5 15 0 15 13 0 22 -16 35 -25 20z"/>
<path d="M10843 7596 c-3 -5 -1 -6 5 -2 18 11 14 -3 -7 -30 -10 -13 -21 -21
-24 -18 -3 3 -5 -1 -4 -8 1 -31 -4 -49 -12 -44 -5 3 -12 -1 -15 -10 -9 -22 -8
-26 5 -18 6 3 -1 -12 -16 -35 -14 -23 -23 -46 -20 -52 4 -5 1 -8 -7 -7 -8 2
-12 -5 -11 -19 2 -17 -1 -21 -15 -16 -9 3 -14 3 -10 -2 4 -4 2 -15 -5 -23 -10
-13 -9 -14 3 -7 12 7 13 6 3 -6 -10 -12 -10 -18 0 -28 10 -11 8 -11 -12 -1
-16 8 -21 9 -16 1 4 -7 1 -19 -7 -28 -11 -14 -11 -16 2 -8 13 8 13 7 1 -8 -7
-9 -10 -17 -5 -17 5 0 1 -7 -10 -15 -10 -7 -16 -20 -14 -27 3 -7 -4 -20 -15
-28 -16 -14 -18 -20 -8 -38 10 -19 9 -21 -6 -15 -12 5 -15 2 -10 -9 3 -10 0
-19 -9 -22 -8 -3 -14 -11 -14 -18 0 -9 3 -9 11 2 9 12 10 12 5 -3 -3 -10 -6
-21 -6 -23 0 -3 -4 -2 -10 1 -6 4 -7 -1 -3 -11 5 -13 2 -16 -9 -12 -11 5 -14
1 -11 -16 3 -12 -5 -40 -17 -60 -11 -21 -19 -41 -15 -44 3 -3 5 1 5 8 0 7 2
11 5 8 8 -8 -6 -39 -15 -33 -11 7 -20 -20 -15 -45 2 -11 0 -18 -6 -15 -5 4 -9
3 -10 -2 -2 -29 -9 -47 -19 -53 -9 -6 -9 -9 1 -13 12 -4 12 -7 0 -18 -12 -12
-13 -12 -6 0 5 9 4 12 -3 7 -6 -4 -9 -12 -6 -19 2 -7 -7 -23 -21 -35 -14 -12
-25 -19 -25 -17 0 3 -6 0 -14 -7 -11 -11 -11 -15 3 -24 9 -7 19 -10 22 -8 4 2
5 -5 2 -16 -3 -11 -9 -20 -14 -20 -5 0 -9 -5 -9 -11 0 -5 5 -7 11 -3 8 5 8 1
0 -13 -6 -11 -7 -23 -3 -27 3 -4 -2 -4 -12 0 -16 6 -17 4 -7 -13 9 -17 7 -24
-12 -37 -12 -9 -15 -14 -7 -10 13 7 13 5 1 -9 -10 -13 -10 -17 -1 -17 7 0 2
-9 -11 -20 -13 -10 -18 -19 -11 -20 6 0 12 -5 12 -11 0 -6 -7 -9 -15 -6 -11 5
-12 1 -5 -19 7 -17 7 -23 0 -19 -7 4 -9 -3 -6 -18 3 -16 -3 -30 -17 -42 -21
-18 -21 -18 -2 -26 20 -7 20 -8 0 -9 -12 -1 -15 -4 -7 -7 10 -4 10 -8 1 -19
-9 -11 -8 -14 2 -14 8 -1 3 -8 -11 -16 -14 -8 -17 -13 -8 -10 10 3 22 -2 27
-12 7 -12 10 -13 11 -3 0 8 8 20 18 27 9 7 17 23 17 35 0 12 6 24 14 27 9 3
11 0 6 -8 -6 -9 -4 -11 4 -5 9 5 10 10 2 18 -7 7 -5 15 7 24 9 8 12 12 6 9 -6
-3 -11 1 -11 8 0 9 7 12 16 8 9 -3 13 -2 9 2 -3 4 -2 21 4 38 8 22 13 26 19
16 6 -9 9 -7 9 10 0 14 -4 21 -11 17 -6 -4 -5 1 2 13 7 11 23 20 37 20 16 0
20 -3 11 -9 -7 -4 -17 -5 -21 -3 -4 3 -8 0 -8 -7 0 -7 9 -9 23 -6 21 6 21 6 3
-8 -12 -9 -15 -15 -7 -15 11 0 11 -3 0 -16 -10 -13 -10 -17 0 -24 11 -6 11 -8
0 -12 -9 -3 -10 -11 -1 -36 8 -22 8 -32 0 -32 -5 0 -7 -7 -4 -15 21 -52 21
-51 0 -35 -18 14 -18 14 -4 -4 8 -11 14 -27 12 -38 -2 -10 1 -18 6 -18 5 0 8
11 7 25 -2 14 1 23 5 20 5 -3 6 -13 3 -22 -5 -12 -3 -14 8 -8 11 7 12 6 2 -7
-7 -8 -9 -19 -5 -23 4 -5 2 -5 -4 -2 -6 3 -11 0 -11 -8 0 -8 4 -12 9 -9 4 3 8
1 8 -5 0 -5 -5 -13 -10 -16 -17 -11 1 -27 23 -21 18 4 16 1 -8 -19 -17 -14
-23 -24 -15 -23 10 2 15 -5 15 -24 -1 -15 3 -26 8 -25 5 1 12 -4 15 -12 3 -8
0 -11 -7 -7 -8 5 -8 0 0 -21 6 -15 10 -29 10 -30 -3 -12 0 -23 7 -23 5 0 9 7
9 15 0 8 -5 11 -10 8 -6 -3 -7 -1 -3 6 4 6 11 9 16 6 16 -10 17 20 2 38 -9 10
-11 17 -4 17 6 0 9 7 5 16 -3 8 -11 13 -17 11 -13 -5 -15 47 -3 60 4 3 -1 15
-10 26 -10 11 -12 17 -5 13 11 -7 12 -4 4 10 -5 11 -8 47 -7 80 1 52 -1 61
-14 56 -14 -5 -14 -4 -1 13 9 11 10 16 3 11 -8 -4 -13 -1 -13 8 0 9 -4 16 -10
16 -5 0 -10 5 -10 12 0 6 9 3 21 -8 15 -14 20 -15 17 -4 -2 8 -7 18 -13 22 -6
5 -4 8 5 8 9 1 6 6 -9 14 -20 11 -21 14 -7 19 12 5 15 3 10 -6 -5 -9 -3 -8 7
1 12 11 12 14 0 21 -11 7 -11 13 0 32 13 24 19 57 20 116 1 18 5 30 10 27 5
-3 6 2 3 10 -3 9 -1 16 6 16 6 0 8 5 5 10 -3 6 -1 10 6 10 8 0 8 4 -1 15 -10
12 -9 15 6 15 17 0 17 1 -2 15 -13 11 -14 13 -3 9 10 -3 19 1 23 11 4 11 2 14
-7 10 -6 -4 -4 0 6 8 14 11 15 16 5 21 -7 3 -3 4 9 2 15 -3 20 0 16 10 -3 8
-10 11 -17 8 -6 -3 0 3 13 14 13 11 21 24 17 31 -4 6 -1 11 8 11 8 0 18 5 22
12 5 8 2 9 -11 4 -14 -5 -16 -4 -7 7 7 8 9 16 6 19 -3 3 2 5 11 4 10 0 22 8
29 19 6 10 17 25 24 33 6 7 12 18 12 23 0 6 5 7 11 4 6 -4 5 2 -3 14 -15 25
-28 27 -28 5 0 -9 -9 -18 -20 -21 -15 -4 -18 -9 -10 -18 9 -11 7 -12 -9 -8
-22 6 -29 23 -10 23 5 0 7 4 4 10 -4 6 1 7 11 3 14 -5 15 -3 4 17 -9 16 -9 20
0 15 7 -4 10 -1 8 11 -2 11 2 18 9 17 7 -2 10 6 8 17 -2 11 2 20 8 20 8 0 8 3
-2 9 -9 6 -10 11 -2 15 6 4 8 12 5 18 -4 7 -2 8 4 4 8 -4 12 1 13 13 1 12 3
26 4 31 1 6 3 17 4 26 0 8 5 13 10 9 5 -3 12 -1 16 5 3 5 0 10 -7 10 -9 0 -9
3 2 10 8 5 11 10 5 10 -7 0 -7 3 0 8 6 4 17 16 25 27 l15 20 -24 -20 -24 -20
18 27 c9 16 15 34 12 42 -4 11 -1 13 10 9 12 -5 14 -1 8 17 -5 15 -4 20 4 16
10 -7 16 19 12 53 -2 7 2 10 8 6 7 -3 8 0 5 9 -4 9 -1 16 6 16 9 0 9 4 -1 17
-8 10 -9 14 -2 10 6 -4 14 -3 18 3 3 5 0 10 -7 10 -8 0 -9 3 -3 8 16 11 51 56
39 49 -18 -10 -24 29 -8 52 11 15 11 20 1 24 -9 4 -9 6 1 6 8 1 10 6 5 14 -13
21 -12 36 3 30 8 -3 14 -1 14 4 0 12 -50 12 -57 -1z m-193 -470 c0 -3 -4 -8
-10 -11 -5 -3 -10 -1 -10 4 0 6 5 11 10 11 6 0 10 -2 10 -4z m40 -286 c0 -5
-8 -10 -17 -10 -15 0 -16 2 -3 10 19 12 20 12 20 0z m-180 -344 c0 -2 -8 -10
-17 -17 -16 -13 -17 -12 -4 4 13 16 21 21 21 13z m12 -44 c-10 -3 -10 -7 -1
-18 10 -12 9 -13 -4 -8 -9 3 -15 14 -14 24 1 11 6 16 16 12 11 -4 11 -7 3 -10z
m5 -243 c-2 -26 -12 -24 -25 5 -9 21 -8 23 8 19 11 -3 18 -13 17 -24z m50
-275 c-3 -3 -12 -4 -19 -1 -8 3 -5 6 6 6 11 1 17 -2 13 -5z"/>
<path d="M10892 7566 c7 -8 15 -12 17 -11 5 6 -10 25 -20 25 -5 0 -4 -6 3 -14z"/>
<path d="M11463 7518 c2 -7 10 -12 16 -10 7 1 10 -2 6 -8 -3 -6 -11 -7 -17 -4
-7 5 -8 2 -3 -6 5 -9 4 -11 -4 -6 -6 4 -9 12 -6 17 8 12 -17 11 -35 -2 -13
-10 -13 -10 0 -6 10 3 16 -2 16 -13 0 -10 -5 -16 -11 -12 -17 11 -35 11 -35 1
0 -6 -5 -7 -12 -3 -7 5 -9 2 -5 -9 4 -11 1 -15 -14 -12 -25 5 -24 -11 2 -25
17 -10 21 -8 26 9 3 11 9 18 14 15 5 -3 9 -1 9 4 0 6 8 9 18 8 10 0 16 5 14
13 -2 8 3 11 12 8 8 -3 22 3 31 13 10 11 23 17 29 13 6 -4 5 1 -3 10 -16 20
-55 23 -48 5z"/>
<path d="M6007 7470 c-9 -11 -12 -20 -6 -20 5 0 7 -5 4 -11 -4 -6 -13 -8 -20
-5 -9 3 -12 -2 -10 -15 2 -10 0 -19 -6 -19 -5 0 -9 -5 -9 -11 0 -5 4 -8 9 -5
11 7 8 -21 -4 -31 -4 -4 -5 -3 -2 3 4 7 1 17 -7 23 -10 9 -15 8 -20 -4 -3 -9
-2 -13 4 -10 5 3 7 -3 5 -15 -2 -11 2 -23 8 -26 7 -4 9 -4 5 1 -5 5 1 15 12
22 11 8 18 19 15 24 -4 5 7 21 22 36 15 14 21 23 13 18 -8 -4 -3 3 11 16 26
24 28 49 5 49 -6 0 -19 -9 -29 -20z"/>
<path d="M5599 7443 l-24 -28 28 24 c15 14 27 26 27 28 0 8 -8 1 -31 -24z"/>
<path d="M11315 7419 c6 -9 3 -11 -9 -6 -9 4 -15 3 -12 -2 3 -5 -8 -14 -24
-21 -17 -7 -30 -17 -30 -22 0 -5 -4 -6 -10 -3 -5 3 -10 1 -10 -5 0 -6 -4 -8
-10 -5 -6 4 -7 -1 -3 -11 5 -13 2 -15 -18 -9 -20 7 -22 6 -12 -7 7 -8 10 -18
6 -21 -3 -4 1 -7 10 -7 8 0 17 5 19 12 4 10 23 17 56 20 9 1 8 6 -4 19 -12 13
-12 19 -3 25 8 5 10 3 4 -6 -6 -10 -4 -12 8 -7 10 4 17 1 17 -5 0 -7 6 -3 14
8 8 10 20 19 28 19 20 0 16 39 -6 43 -13 3 -16 0 -11 -9z m0 -29 c-3 -5 -12
-10 -18 -10 -7 0 -6 4 3 10 19 12 23 12 15 0z m-65 -46 c0 -8 -19 -13 -24 -6
-3 5 1 9 9 9 8 0 15 -2 15 -3z"/>
<path d="M5915 7340 c-4 -6 -1 -18 7 -27 12 -15 11 -15 -9 -5 -19 11 -21 10
-18 -7 2 -13 -1 -18 -10 -15 -7 3 -16 0 -21 -7 -4 -8 -3 -10 4 -5 8 5 10 2 6
-8 -3 -9 -9 -14 -14 -11 -4 2 -6 -6 -5 -19 2 -19 -1 -23 -16 -19 -15 4 -18 2
-12 -12 4 -13 3 -16 -5 -11 -7 4 -12 1 -12 -8 0 -8 -5 -16 -12 -18 -6 -2 -8
-9 -4 -16 3 -6 13 -9 21 -6 8 4 12 10 9 15 -3 5 2 9 10 9 8 0 18 5 22 12 4 7
3 8 -4 4 -18 -11 -14 1 6 23 9 11 23 27 30 36 7 8 17 13 22 10 4 -3 6 5 2 17
-4 16 -2 20 10 16 11 -5 15 2 15 28 0 34 -10 44 -22 24z"/>
<path d="M11155 7310 c-4 -6 -12 -7 -18 -4 -7 4 -9 4 -5 -1 5 -5 -2 -13 -15
-20 -12 -6 -21 -17 -19 -23 1 -7 -6 -12 -16 -12 -23 0 -85 -54 -74 -65 4 -4 0
-6 -9 -2 -9 3 -23 -3 -33 -14 -18 -22 -21 -33 -6 -24 6 3 10 1 10 -4 0 -15
-13 -14 -29 2 -11 10 -12 9 -6 -2 6 -11 4 -13 -9 -8 -14 6 -15 4 -5 -16 11
-20 11 -21 -4 -8 -11 9 -17 10 -17 2 0 -6 -6 -10 -12 -8 -7 1 -12 -2 -12 -8 1
-5 -10 -21 -23 -35 l-25 -25 11 25 c12 24 11 24 -4 5 -8 -11 -13 -25 -11 -32
3 -7 1 -15 -4 -18 -6 -4 -10 -1 -10 4 0 6 -4 11 -10 11 -5 0 -9 -6 -7 -12 1
-7 -4 -12 -11 -10 -10 2 -10 -2 -2 -18 6 -12 7 -20 1 -20 -5 0 -12 6 -14 13
-3 6 -6 1 -6 -13 -1 -18 -4 -21 -10 -12 -6 11 -9 9 -13 -6 -7 -27 8 -53 18
-29 3 9 10 15 14 12 5 -3 12 0 16 6 5 8 2 10 -7 5 -8 -4 -3 2 11 13 21 18 23
22 10 31 -8 5 -10 10 -4 10 5 0 16 -6 23 -12 10 -9 12 -10 7 -1 -4 7 2 17 14
23 11 6 20 17 20 25 0 8 5 15 11 15 5 0 7 6 3 13 -6 9 -5 9 8 0 22 -19 31 -3
11 20 -13 14 -14 18 -3 12 26 -16 39 -14 46 7 4 13 12 18 25 15 10 -3 17 -1
13 4 -3 5 0 9 6 9 6 0 8 5 5 10 -3 6 0 10 8 10 8 0 22 12 32 26 10 15 22 23
31 20 8 -3 14 -1 14 5 0 6 5 7 10 4 15 -9 12 2 -6 19 -8 9 -11 16 -5 16 5 0
13 -5 16 -11 5 -6 12 -4 22 8 9 11 12 12 8 3 -4 -10 -2 -9 8 2 8 10 18 14 22
10 5 -4 5 -1 1 6 -4 7 -1 12 8 12 9 0 16 5 16 11 0 5 6 7 13 3 9 -6 9 -5 0 8
-7 8 -10 18 -6 21 3 4 1 7 -5 7 -6 0 -14 -5 -17 -10z m-25 -34 c0 -2 -7 -7
-16 -10 -8 -3 -12 -2 -9 4 6 10 25 14 25 6z m-66 -54 c2 -4 -5 -9 -17 -9 -17
-2 -19 0 -7 7 18 12 18 12 24 2z m-57 -58 c-3 -3 -12 -4 -19 -1 -8 3 -5 6 6 6
11 1 17 -2 13 -5z"/>
<path d="M5774 7153 c4 -7 3 -13 -3 -13 -6 0 -8 -7 -5 -15 4 -9 0 -15 -10 -15
-9 0 -16 5 -16 12 0 6 -3 8 -6 5 -4 -4 1 -19 11 -34 16 -24 16 -26 2 -14 -15
12 -21 9 -18 -11 0 -5 -6 -8 -14 -8 -8 0 -15 -5 -15 -11 0 -5 -6 -7 -12 -3 -9
5 -9 2 1 -9 12 -15 11 -17 -5 -17 -17 0 -17 -1 1 -14 20 -15 40 -12 30 4 -7
12 30 32 40 22 5 -4 5 -1 1 6 -4 7 -12 10 -17 7 -5 -3 -6 1 -3 9 3 9 10 14 14
11 9 -6 25 13 25 30 0 6 5 10 12 10 6 0 15 4 20 9 5 6 2 6 -6 1 -11 -6 -13 -4
-8 8 3 9 -1 21 -11 29 -11 9 -14 10 -8 1z"/>
<path d="M5646 6978 c-15 -17 -16 -22 -5 -30 10 -6 7 -7 -10 -3 -15 5 -21 3
-17 -3 3 -5 -1 -13 -9 -16 -8 -3 -14 -11 -13 -18 2 -7 -4 -12 -13 -12 -9 1
-16 -5 -16 -12 0 -7 4 -11 8 -8 4 2 11 -1 15 -7 4 -7 3 -9 -4 -5 -6 3 -13 2
-17 -4 -4 -6 -11 -8 -16 -4 -5 3 -6 10 -3 16 4 7 2 8 -4 4 -6 -4 -9 -13 -6
-21 7 -16 -20 -48 -30 -37 -4 3 -4 -1 -1 -10 4 -11 0 -18 -14 -23 -13 -4 -18
-11 -14 -22 4 -9 2 -14 -3 -11 -5 4 -18 0 -29 -8 -10 -8 -13 -14 -7 -14 7 0
12 -5 12 -11 0 -6 -7 -8 -16 -5 -8 3 -12 2 -9 -3 3 -6 -3 -14 -12 -20 -10 -6
-14 -11 -10 -11 5 0 1 -7 -7 -16 -9 -8 -21 -12 -28 -8 -8 5 -7 0 2 -11 9 -11
10 -16 2 -11 -8 5 -15 -2 -22 -18 -5 -14 -15 -24 -22 -22 -7 1 -10 1 -5 -1 13
-8 8 -25 -6 -20 -12 4 -41 -27 -42 -45 0 -13 -15 -21 -15 -8 0 7 -3 10 -6 7
-4 -4 -1 -14 7 -24 8 -9 9 -14 3 -10 -6 3 -26 -5 -45 -20 -19 -14 -26 -23 -17
-20 9 3 19 1 21 -6 3 -9 7 -9 19 0 8 7 19 9 23 5 5 -4 6 1 2 10 -3 9 0 19 9
22 8 3 14 10 14 16 0 6 7 18 15 27 8 8 12 20 9 26 -5 8 -3 8 6 0 17 -16 41 2
33 24 -5 12 -2 15 10 10 9 -3 16 -3 16 1 -4 22 3 31 19 26 14 -5 15 -4 2 5
-13 9 -13 12 -1 23 12 11 13 10 6 -2 -6 -11 -5 -12 4 -4 7 6 13 18 14 25 4 25
17 38 32 32 18 -6 19 1 5 28 -7 13 -7 19 0 19 5 0 10 -5 10 -11 0 -5 4 -8 9
-5 5 4 12 0 15 -6 3 -7 3 -1 1 14 -2 17 1 27 8 25 7 -1 11 4 10 11 -2 6 2 12
8 12 5 0 8 4 4 9 -3 5 0 13 6 17 8 4 9 3 5 -4 -4 -7 -2 -12 3 -12 6 0 11 7 11
16 0 9 5 12 13 8 7 -5 6 0 -3 11 -13 17 -13 18 0 14 13 -5 50 22 50 36 0 3 0
10 0 16 0 5 5 7 12 3 7 -4 8 -3 4 4 -4 7 -2 12 4 12 6 0 8 5 5 10 -3 6 -2 10
4 10 5 0 11 -3 14 -7 2 -5 2 -2 1 5 -2 6 1 12 6 12 5 0 7 7 3 16 -4 10 -1 14
8 12 8 -2 16 0 17 5 9 32 -14 35 -42 5z m-396 -508 c0 -5 -5 -10 -11 -10 -5 0
-7 5 -4 10 3 6 8 10 11 10 2 0 4 -4 4 -10z"/>
<path d="M5435 6680 c-3 -5 -1 -10 4 -10 6 0 11 5 11 10 0 6 -2 10 -4 10 -3 0
-8 -4 -11 -10z"/>
<path d="M5185 6417 c6 -21 6 -22 -9 -3 -14 18 -16 18 -16 3 0 -10 -7 -20 -16
-24 -8 -3 -13 -12 -10 -19 3 -7 -4 -16 -15 -19 -11 -4 -18 -9 -15 -13 3 -3 -4
-10 -17 -17 -15 -7 -21 -19 -20 -35 1 -14 0 -20 -3 -13 -3 7 -12 9 -20 6 -13
-5 -13 -7 -2 -14 10 -7 9 -9 -3 -9 -9 0 -24 -11 -33 -25 -18 -27 -21 -49 -6
-40 6 4 7 -1 3 -12 -3 -10 5 -4 18 12 13 17 27 32 31 33 5 2 8 10 8 18 0 8 3
13 8 12 4 -2 7 0 7 4 0 4 9 14 20 23 11 9 14 13 6 9 -9 -5 -12 -3 -7 4 4 7 13
12 20 12 16 0 56 42 56 59 0 7 5 9 13 5 6 -4 9 -4 5 0 -10 11 31 48 45 40 9
-5 9 -4 1 5 -6 6 -20 13 -33 16 -19 3 -21 1 -16 -18z m-22 -32 c-3 -9 -8 -14
-10 -11 -3 3 -2 9 2 15 9 16 15 13 8 -4z m-3 -28 c0 -2 -8 -11 -18 -20 -15
-14 -19 -15 -19 -2 0 8 4 12 8 9 4 -2 10 0 14 6 6 10 15 14 15 7z m-133 -127
c-1 -11 -5 -20 -9 -20 -10 0 -10 4 -2 24 8 22 13 20 11 -4z"/>
<path d="M4958 6194 c19 -9 14 -24 -9 -24 -15 0 -19 -5 -15 -15 3 -8 1 -15 -4
-15 -5 0 -20 -11 -34 -23 -20 -19 -23 -26 -13 -36 9 -10 8 -11 -7 -5 -12 5
-22 2 -28 -10 -5 -9 -14 -14 -20 -10 -6 4 -5 -3 2 -16 8 -14 8 -20 1 -16 -14
9 -53 -12 -46 -25 10 -16 40 -10 53 11 7 12 18 18 25 14 9 -5 9 -3 0 7 -17 18
-16 26 3 33 14 5 15 4 4 -9 -7 -8 -8 -15 -2 -15 5 0 13 7 16 16 3 9 11 12 18
8 7 -4 10 -4 6 1 -9 10 11 37 22 30 5 -3 6 5 2 17 -4 17 -2 20 12 15 10 -4 15
-3 11 3 -3 6 -1 10 5 10 6 0 8 4 5 10 -4 6 1 7 10 3 13 -4 16 -1 13 18 -2 15
-10 25 -23 26 -11 2 -14 0 -7 -3z m-43 -94 c-3 -5 -12 -10 -18 -10 -7 0 -6 4
3 10 19 12 23 12 15 0z"/>
<path d="M4760 5975 c-7 -8 -17 -12 -23 -8 -6 3 -7 1 -3 -5 3 -6 -2 -15 -11
-21 -10 -6 -15 -11 -10 -11 4 0 -2 -9 -13 -20 -22 -22 -27 -45 -7 -34 6 4 8 3
4 -1 -14 -16 -36 -14 -30 3 4 10 -2 7 -16 -7 -19 -19 -20 -25 -9 -38 12 -15
11 -15 -12 -3 -22 12 -24 12 -12 -3 11 -13 10 -15 -7 -10 -15 4 -21 1 -21 -11
0 -11 -5 -14 -12 -10 -7 4 -8 3 -4 -4 6 -11 -6 -16 -26 -13 -12 2 -9 -6 7 -23
14 -14 12 -15 -17 -11 -17 2 -35 11 -40 19 -5 9 -15 13 -24 9 -13 -5 -15 -2
-9 16 7 22 6 22 -12 4 -14 -13 -15 -19 -5 -21 7 -2 11 -10 8 -18 -3 -9 -1 -12
4 -9 6 3 10 1 10 -5 0 -6 4 -9 10 -5 5 3 6 13 3 23 -7 18 -5 17 17 -12 13 -17
13 -18 1 -11 -11 6 -13 4 -8 -8 3 -10 2 -17 -4 -17 -6 0 -8 -4 -4 -9 3 -5 1
-12 -5 -16 -6 -4 -7 -11 -4 -17 4 -6 2 -8 -4 -4 -6 3 -13 2 -17 -4 -3 -5 -2
-10 4 -10 5 0 9 -9 8 -19 0 -11 -5 -17 -9 -15 -5 3 -6 11 -2 17 3 7 -1 4 -9
-5 -8 -10 -18 -14 -22 -10 -5 4 -5 1 -1 -6 4 -7 12 -9 18 -6 7 5 8 2 4 -5 -5
-7 -14 -10 -22 -7 -8 3 -13 2 -11 -2 4 -15 -32 -54 -45 -47 -7 4 -2 -3 12 -14
l25 -21 -27 4 c-21 4 -26 1 -21 -11 4 -11 2 -14 -5 -9 -8 4 -10 2 -6 -8 3 -9
-3 -17 -16 -21 -12 -4 -19 -9 -16 -13 4 -3 -6 -18 -21 -34 -15 -15 -22 -28
-17 -28 5 0 15 9 22 20 14 22 38 26 45 8 3 -7 6 0 6 16 1 16 4 26 8 23 3 -4
12 -2 20 4 11 10 11 15 1 27 -11 13 -10 15 4 9 19 -7 34 24 22 45 -6 10 -3 9
9 0 14 -12 16 -11 12 8 -4 18 -2 20 11 9 12 -10 13 -9 8 6 -6 14 -4 16 7 10 8
-4 11 -5 7 0 -4 4 -2 13 5 21 39 43 49 63 25 48 -7 -5 -8 -3 -3 6 7 11 10 10
19 -1 13 -16 46 -21 46 -7 0 5 4 7 9 3 15 -9 3 36 -14 55 -12 14 -13 20 -4 26
8 4 10 3 5 -4 -4 -7 -3 -12 3 -12 14 0 33 38 26 50 -6 9 -2 12 27 14 23 2 64
50 55 64 -6 7 -6 12 0 12 5 0 15 -6 22 -12 10 -11 12 -10 9 2 -2 8 3 14 10 12
8 -1 11 2 7 7 -3 6 3 15 14 21 13 7 18 16 14 28 -3 9 -3 14 2 10 4 -4 14 0 22
8 8 8 19 11 25 8 5 -4 4 4 -3 17 -12 23 -11 23 6 9 11 -9 16 -10 11 -2 -4 7
-2 12 6 12 9 0 9 3 -2 10 -20 13 -25 12 -40 -5z m0 -35 c-8 -5 -19 -10 -25
-10 -5 0 -3 5 5 10 8 5 20 10 25 10 6 0 3 -5 -5 -10z m-36 -39 c3 -5 -1 -11
-9 -14 -9 -4 -12 -1 -8 9 6 16 10 17 17 5z m-173 -244 c-5 -5 -17 -4 -28 2
-16 11 -16 11 4 6 19 -5 22 -3 17 12 -5 15 -4 15 5 3 6 -8 6 -19 2 -23z"/>
<path d="M10584 5902 c-16 -10 -14 -109 2 -109 7 0 10 5 7 10 -3 6 -1 7 6 3 7
-5 8 -13 4 -19 -11 -16 -9 -38 5 -64 7 -13 10 -23 6 -23 -3 0 -1 -7 6 -15 6
-8 9 -19 5 -25 -4 -6 -3 -10 2 -9 20 4 27 -2 13 -12 -13 -9 -13 -10 1 -6 14 5
16 -1 14 -29 -4 -41 -1 -42 21 -9 15 23 15 26 -4 50 -13 17 -20 37 -17 55 4
32 -18 60 -31 39 -5 -8 -3 -9 6 -4 9 5 11 4 6 -4 -4 -6 -3 -18 3 -25 8 -9 7
-13 -4 -13 -8 0 -12 3 -10 7 2 3 0 12 -5 20 -4 7 -4 23 2 35 13 30 -6 69 -30
61 -13 -5 -13 -3 2 9 13 10 16 18 9 27 -5 7 -8 23 -7 36 0 12 1 22 0 22 0 0
-6 -4 -12 -8z"/>
<path d="M3775 5880 c-3 -5 -1 -10 4 -10 6 0 11 5 11 10 0 6 -2 10 -4 10 -3 0
-8 -4 -11 -10z"/>
<path d="M4387 5846 c-6 -14 35 -56 53 -56 6 0 10 8 10 18 0 14 -2 15 -10 2
-9 -13 -10 -13 -11 0 -1 8 0 22 1 30 1 10 -3 9 -14 -5 -15 -20 -15 -20 -11 3
4 24 -10 31 -18 8z"/>
<path d="M4385 5772 c-9 -9 -6 -18 13 -40 14 -16 22 -18 30 -10 8 8 9 5 5 -12
-4 -15 -2 -21 5 -17 5 4 12 2 14 -5 2 -6 10 -8 17 -4 9 6 7 13 -8 27 -12 11
-21 24 -21 29 0 5 -9 7 -20 5 -22 -4 -26 5 -10 21 7 7 6 11 -5 11 -8 0 -17 -3
-20 -5z"/>
<path d="M4590 5760 c0 -5 5 -10 11 -10 5 0 7 5 4 10 -3 6 -8 10 -11 10 -2 0
-4 -4 -4 -10z"/>
<path d="M3640 5721 c0 -7 -5 -9 -12 -5 -7 5 -8 3 -3 -5 5 -9 10 -10 18 -2 6
6 8 14 4 18 -4 3 -7 1 -7 -6z"/>
<path d="M10690 5590 c-8 -5 -16 -21 -17 -35 -1 -15 2 -23 8 -19 6 3 9 -2 7
-11 -2 -10 2 -20 7 -22 6 -2 12 13 13 32 2 27 -1 35 -15 35 -15 0 -15 2 3 15
21 16 17 20 -6 5z"/>
<path d="M10715 5520 c-3 -5 -4 -10 -2 -10 3 0 1 -16 -3 -35 -8 -34 7 -64 25
-47 4 4 4 -3 1 -15 -4 -14 -3 -23 3 -23 5 0 8 -9 6 -20 -2 -11 0 -18 4 -16 4
3 13 -6 19 -19 10 -21 9 -23 -6 -19 -9 3 -6 -1 8 -9 14 -9 27 -14 30 -12 3 2
5 -7 5 -20 0 -13 -3 -21 -7 -18 -17 10 -7 -27 10 -39 19 -14 21 -26 8 -47 -6
-9 -5 -12 2 -7 6 3 13 -3 17 -14 3 -11 10 -20 15 -20 5 0 7 -8 3 -17 -6 -16
-4 -16 16 1 15 13 18 22 10 27 -6 4 -9 11 -5 17 3 5 -3 20 -13 33 -10 13 -17
32 -15 42 1 12 -2 17 -10 14 -10 -4 -13 3 -11 24 2 20 -3 30 -15 34 -13 4 -17
15 -16 35 1 20 -3 30 -12 30 -7 0 -11 4 -7 9 3 5 -2 17 -11 25 -9 9 -11 16 -4
16 7 0 5 7 -4 16 -9 8 -14 20 -11 25 4 5 1 9 -4 9 -6 0 -11 5 -11 11 0 5 6 7
13 3 6 -4 4 2 -6 13 -9 11 -14 23 -10 26 3 4 4 7 0 7 -3 0 -9 -4 -12 -10z m19
-81 c-3 -5 -10 -7 -15 -3 -5 3 -7 10 -3 15 3 5 10 7 15 3 5 -3 7 -10 3 -15z
m33 -56 c-4 -3 -1 -13 6 -22 11 -14 10 -14 -5 -2 -16 12 -16 31 -1 31 4 0 3
-3 0 -7z m58 -161 c-3 -3 -11 0 -18 7 -9 10 -8 11 6 5 10 -3 15 -9 12 -12z
m39 -48 c4 -10 2 -13 -6 -8 -8 5 -9 1 -5 -12 7 -19 7 -19 -8 0 -14 19 -12 36
5 36 4 0 11 -7 14 -16z"/>
<path d="M4301 5401 c-6 -10 -8 -21 -5 -24 3 -3 -4 -3 -15 0 -17 4 -20 2 -14
-12 4 -13 3 -16 -5 -11 -7 4 -12 1 -12 -9 0 -10 -5 -14 -12 -9 -10 5 -10 4 -1
-6 6 -7 9 -18 7 -25 -3 -7 1 -16 8 -21 7 -4 10 -3 5 1 -4 5 6 22 22 39 17 17
30 34 31 39 0 4 0 12 0 18 0 5 4 8 8 5 4 -2 9 4 9 15 2 24 -13 25 -26 0z m-1
-44 c0 -2 -10 -12 -21 -23 -22 -19 -22 -19 -8 4 12 19 29 30 29 19z"/>
<path d="M4209 5310 c12 -7 12 -11 -1 -24 -9 -8 -17 -13 -20 -11 -2 2 -4 -9
-3 -25 0 -36 15 -39 34 -7 23 36 21 73 -3 75 -16 1 -17 -1 -7 -8z m2 -53 c-10
-9 -11 -8 -5 6 3 10 9 15 12 12 3 -3 0 -11 -7 -18z"/>
<path d="M4149 5223 c-12 -14 -12 -16 0 -9 9 6 12 5 9 -5 -3 -8 -11 -13 -17
-11 -10 2 -16 -18 -12 -40 0 -4 -6 -5 -14 -2 -11 5 -13 2 -8 -12 4 -12 3 -15
-5 -10 -8 5 -10 1 -5 -10 5 -14 3 -16 -11 -11 -11 5 -15 3 -10 -5 5 -8 1 -9
-11 -4 -18 7 -18 6 0 -14 18 -20 18 -21 0 -14 -13 5 -16 4 -11 -4 4 -8 0 -12
-11 -12 -15 0 -16 -2 -3 -10 13 -9 7 -14 -12 -11 -4 0 -10 -10 -14 -24 -3 -13
-9 -24 -13 -23 -25 3 -30 -3 -14 -21 16 -19 39 -19 28 0 -4 5 1 12 9 15 9 3
16 12 16 20 0 8 6 13 13 12 6 -2 11 3 10 10 -2 6 2 12 9 12 6 0 8 3 5 6 -4 4
3 15 15 25 14 13 16 19 7 19 -12 0 -12 2 1 9 8 6 19 7 25 4 5 -4 7 -3 3 2 -9
10 10 47 21 41 4 -3 8 1 8 9 0 8 -5 12 -11 9 -6 -3 -2 1 8 10 10 8 24 17 30
19 8 3 7 8 -1 19 -7 8 -10 18 -6 21 3 4 2 7 -4 7 -6 0 -17 -8 -24 -17z"/>
<path d="M10879 5117 c-6 -12 -6 -57 1 -57 4 0 11 -7 14 -16 5 -14 4 -15 -9
-4 -9 8 -15 8 -15 2 0 -6 9 -14 20 -17 11 -3 20 -11 20 -16 0 -6 -4 -8 -9 -5
-12 8 -8 -13 7 -40 6 -12 8 -25 4 -29 -4 -5 -1 -5 6 -1 7 4 10 11 7 16 -3 5
-1 20 5 34 7 19 6 29 -6 41 -8 8 -16 24 -17 35 -1 11 -5 20 -10 20 -5 0 -4 6
2 14 9 10 8 15 -4 20 -8 3 -16 4 -16 3z"/>
<path d="M10937 4973 c-8 -13 -1 -93 9 -103 6 -6 10 -3 10 9 0 11 -5 17 -10
14 -5 -3 -6 -1 -2 5 13 21 25 12 21 -15 -2 -16 -4 -28 -5 -28 -7 0 -6 -36 0
-40 5 -3 6 -13 3 -23 -4 -13 -2 -13 10 3 16 20 16 20 12 -2 -2 -13 0 -25 6
-28 5 -4 14 -15 20 -27 8 -15 8 -19 0 -14 -6 4 -11 2 -11 -3 0 -6 5 -11 12
-11 6 0 9 -3 5 -6 -6 -7 19 -64 29 -64 2 0 0 9 -6 21 -7 11 -9 23 -6 27 9 8
14 0 18 -27 3 -23 -6 -29 -49 -33 -6 -1 -9 -7 -6 -15 3 -7 1 -13 -3 -13 -5 0
-8 -17 -8 -37 1 -21 -3 -44 -9 -51 -7 -9 -6 -11 8 -6 15 6 16 5 5 -17 -12 -21
-12 -23 2 -11 13 10 16 9 21 -8 3 -12 11 -18 19 -15 8 3 25 -3 38 -15 13 -11
28 -20 33 -20 6 0 2 -9 -7 -19 -17 -18 -17 -20 0 -29 15 -8 16 -14 7 -34 -6
-14 -7 -31 -3 -38 5 -7 7 -21 5 -31 -2 -10 1 -18 8 -16 6 1 12 -7 14 -18 3
-16 2 -17 -6 -5 -7 9 -11 10 -11 3 0 -6 5 -15 10 -18 6 -3 10 -11 10 -17 0 -6
-7 -5 -17 3 -17 13 -17 13 -1 -6 18 -21 22 -89 5 -78 -6 3 -7 1 -3 -6 4 -6 12
-9 17 -6 5 3 6 -1 3 -9 -3 -9 -9 -14 -13 -11 -4 2 -8 -3 -8 -11 0 -8 6 -13 12
-10 6 2 12 -2 12 -9 0 -7 -7 -11 -16 -8 -12 4 -13 3 -3 -4 7 -5 10 -17 6 -26
-3 -10 -1 -24 6 -32 10 -13 9 -15 -11 -16 l-24 0 23 -9 c12 -5 22 -15 22 -22
0 -8 -3 -9 -8 -3 -4 6 -16 11 -27 13 -11 2 -16 -1 -10 -5 6 -4 10 -14 11 -20
2 -30 5 -34 16 -27 7 4 8 3 4 -4 -5 -9 -13 -9 -28 -1 -12 7 -18 7 -14 1 3 -6
2 -12 -3 -14 -17 -6 -19 -82 -2 -96 14 -10 14 -11 -3 -6 -16 6 -17 4 -7 -14
10 -19 9 -22 -6 -22 -11 0 -14 -3 -7 -8 12 -8 14 -53 1 -45 -5 3 -6 12 -3 20
3 8 1 11 -4 8 -6 -3 -8 -19 -5 -36 3 -17 1 -29 -5 -29 -7 0 -7 -8 1 -22 11
-20 11 -22 -3 -10 -13 10 -18 10 -24 1 -4 -7 -3 -9 3 -6 6 4 13 0 17 -8 3 -8
0 -17 -6 -21 -7 -5 -8 -2 -3 7 6 11 5 12 -6 2 -10 -10 -10 -16 -1 -25 8 -8 8
-17 0 -32 -8 -15 -8 -21 0 -24 9 -3 9 -9 2 -23 -6 -10 -8 -20 -5 -20 3 -1 9
-2 15 -3 5 0 15 -7 22 -15 9 -10 9 -12 1 -7 -9 5 -11 2 -7 -8 3 -9 10 -14 14
-11 5 3 10 0 12 -5 5 -15 94 -17 91 -3 -2 7 7 10 22 7 13 -2 27 1 31 7 5 8 3
9 -7 4 -12 -8 -12 -6 0 8 7 9 17 15 21 12 5 -3 11 -1 15 5 3 5 1 10 -4 10 -6
0 -11 5 -11 11 0 5 5 7 10 4 6 -3 10 -1 10 5 0 6 5 8 13 4 7 -5 6 0 -3 11 -9
11 -10 16 -2 11 8 -5 12 2 12 24 0 22 4 29 13 24 9 -6 9 -4 -1 8 -11 13 -11
19 1 29 19 18 9 49 -14 49 -31 0 -34 -1 -31 -12 2 -6 -4 -8 -12 -5 -9 4 -15 3
-15 -1 3 -21 -3 -31 -22 -37 -17 -6 -19 -9 -8 -16 10 -6 8 -9 -8 -9 -13 0 -23
-3 -23 -6 0 -12 28 -33 35 -26 4 4 2 -4 -5 -17 -11 -22 -11 -23 6 -17 16 5 15
3 -3 -13 -12 -10 -19 -21 -16 -25 4 -3 -1 -6 -11 -6 -10 0 -14 5 -10 11 3 6
-6 3 -21 -7 -22 -14 -27 -15 -23 -4 3 8 -3 22 -12 30 -20 18 -23 87 -3 94 7 3
13 11 13 18 0 9 -3 8 -10 -2 -15 -24 -11 2 5 34 8 15 12 32 9 37 -3 5 -1 9 4
9 5 0 12 9 15 20 3 11 0 20 -6 20 -8 0 -7 4 2 9 7 5 10 14 6 21 -4 7 -1 10 11
8 13 -2 18 2 16 13 -1 9 5 19 13 23 12 4 14 10 5 25 -7 14 -7 22 2 27 7 5 8 3
3 -6 -6 -9 -4 -11 4 -5 9 5 6 15 -13 34 -15 15 -23 31 -19 35 11 10 11 56 1
50 -4 -3 -8 0 -8 5 0 6 4 11 9 11 6 0 6 12 1 30 -5 17 -5 30 -1 30 4 0 5 16 3
36 -4 29 -2 35 9 29 8 -5 5 1 -5 13 -11 12 -15 22 -10 22 13 0 12 53 -1 62 -6
5 -6 8 1 8 11 0 13 35 2 45 -3 3 -2 23 2 45 9 48 -1 68 -21 44 -13 -16 -12
-17 6 -11 18 7 19 6 3 -6 -10 -8 -14 -18 -10 -22 4 -5 2 -5 -5 -2 -12 8 -12
22 3 52 11 24 11 55 1 73 -5 7 -3 12 3 12 6 0 8 5 4 12 -5 8 -2 9 10 5 11 -4
15 -3 11 4 -4 6 2 13 14 16 11 3 18 10 14 16 -3 5 2 16 12 24 14 9 15 13 4 13
-9 0 -10 3 -3 8 6 4 14 16 17 26 6 15 5 17 -6 8 -10 -9 -14 -8 -14 3 0 8 5 15
10 15 6 0 1 8 -10 18 -11 9 -22 25 -26 35 -4 10 -11 16 -16 12 -6 -3 -14 3
-20 12 -6 10 -11 12 -11 6 0 -7 -5 -13 -11 -13 -5 0 -7 5 -3 11 5 8 1 8 -14 0
-23 -12 -36 6 -26 37 4 10 3 13 -3 6 -6 -9 -11 -8 -21 2 -8 9 -9 14 -2 14 7 0
5 6 -3 15 -9 8 -13 24 -10 35 3 12 0 20 -6 20 -7 0 -10 -4 -7 -8 3 -5 -1 -9
-9 -9 -9 0 -11 5 -6 11 18 24 19 46 4 62 -9 9 -17 24 -18 35 -1 10 -10 28 -21
40 -11 14 -13 19 -4 14 13 -8 13 -7 0 10 -8 10 -13 20 -12 22 2 3 1 7 -1 9 -3
3 -7 2 -10 -3z m68 -143 c3 -6 -1 -7 -9 -4 -18 7 -21 14 -7 14 6 0 13 -4 16
-10z m125 -560 c0 -5 -2 -10 -4 -10 -3 0 -8 5 -11 10 -3 6 -1 10 4 10 6 0 11
-4 11 -10z m20 -352 c0 -3 -9 -6 -20 -5 -11 1 -20 5 -20 9 0 3 9 6 20 5 11 -1
20 -5 20 -9z"/>
<path d="M3963 4956 c4 -9 2 -16 -4 -16 -6 0 -7 -5 -4 -10 4 -7 12 -7 24 0 10
5 22 6 26 2 5 -4 5 -1 1 5 -4 7 -17 18 -28 24 -18 10 -20 9 -15 -5z"/>
<path d="M3935 4910 c3 -5 -3 -14 -14 -20 -13 -7 -18 -16 -14 -27 5 -12 3 -14
-8 -8 -12 8 -12 6 0 -8 12 -15 12 -17 -4 -11 -13 5 -16 4 -11 -4 4 -7 1 -12
-8 -12 -10 0 -13 -6 -9 -17 5 -13 2 -15 -14 -11 -16 4 -19 2 -16 -13 3 -10 10
-16 16 -12 6 3 7 1 3 -6 -6 -9 -11 -9 -21 -1 -9 8 -14 6 -19 -5 -4 -11 -2 -14
6 -9 7 4 8 3 4 -4 -4 -7 -14 -12 -22 -12 -9 0 -14 -7 -12 -17 2 -12 -3 -18
-13 -17 -10 1 -16 -5 -15 -14 4 -23 22 -26 48 -8 12 9 18 16 12 16 -6 0 -11 6
-11 14 0 8 6 12 12 10 7 -3 18 2 25 11 7 8 10 15 6 15 -4 0 1 11 10 25 9 14
21 22 27 18 5 -3 7 -1 4 4 -10 15 29 56 45 47 10 -5 10 -4 1 6 -9 10 -8 16 3
28 8 8 13 21 10 28 -3 8 0 11 10 7 7 -3 14 -1 14 4 0 5 -11 10 -26 11 -14 1
-22 -2 -19 -8z m5 -30 c0 -5 -5 -10 -11 -10 -5 0 -7 5 -4 10 3 6 8 10 11 10 2
0 4 -4 4 -10z"/>
<path d="M3465 4890 c-3 -5 -1 -10 4 -10 6 0 11 5 11 10 0 6 -2 10 -4 10 -3 0
-8 -4 -11 -10z"/>
<path d="M11035 4761 c-3 -5 -2 -12 3 -15 5 -3 9 1 9 9 0 17 -3 19 -12 6z"/>
<path d="M10980 4739 c0 -5 5 -7 10 -4 6 3 10 8 10 11 0 2 -4 4 -10 4 -5 0
-10 -5 -10 -11z"/>
<path d="M3315 4700 c-3 -5 -1 -10 4 -10 6 0 11 5 11 10 0 6 -2 10 -4 10 -3 0
-8 -4 -11 -10z"/>
<path d="M3736 4648 c3 -5 -2 -18 -12 -29 -9 -10 -13 -19 -8 -20 5 0 -4 -7
-21 -14 -16 -8 -24 -14 -16 -15 11 0 11 -3 1 -15 -7 -8 -17 -12 -22 -9 -7 4
-7 0 0 -12 5 -11 7 -25 5 -31 -3 -7 1 -13 7 -13 8 0 10 10 8 25 -3 14 -1 28 5
32 6 3 7 1 3 -5 -4 -7 -2 -12 4 -12 6 0 8 -6 4 -12 -4 -7 -3 -9 1 -5 5 4 10
15 11 25 2 9 12 23 24 31 19 13 19 14 3 26 -15 11 -14 12 9 10 21 -2 25 0 21
13 -5 11 -3 13 7 7 9 -6 11 -4 5 5 -6 10 -4 12 11 6 15 -6 16 -4 7 5 -14 14
-66 21 -57 7z"/>
<path d="M3634 4507 c-6 -7 -8 -19 -6 -26 3 -9 0 -11 -8 -6 -9 5 -11 4 -6 -3
4 -8 0 -12 -11 -12 -14 0 -15 -2 -4 -9 9 -6 10 -11 2 -15 -6 -4 -15 -5 -20 -1
-6 3 -8 -4 -6 -15 3 -14 -1 -20 -13 -20 -13 0 -14 -2 -4 -9 11 -7 11 -9 -2
-14 -9 -4 -16 -1 -16 5 0 6 -2 9 -5 6 -3 -3 -3 -12 1 -21 6 -17 44 -19 41 -2
-1 5 3 9 9 8 7 -1 10 5 7 16 -2 9 4 24 14 32 16 13 17 13 4 -3 -9 -12 -10 -18
-2 -18 9 0 15 14 9 23 -5 8 25 47 33 42 5 -4 9 1 9 9 0 9 -5 16 -11 16 -8 0
-8 5 1 15 15 18 0 20 -16 2z"/>
<path d="M3525 4353 c3 -7 0 -13 -7 -13 -10 0 -9 -3 2 -11 12 -9 11 -10 -7 -6
-13 3 -23 1 -23 -4 0 -5 4 -9 10 -9 5 0 -6 -15 -24 -34 -26 -26 -32 -36 -23
-45 9 -9 7 -10 -7 -5 -14 5 -17 4 -11 -5 6 -10 2 -11 -16 -6 -23 7 -24 7 -4
-9 17 -13 17 -15 4 -16 -29 0 -29 -26 0 -28 18 -1 22 1 12 7 -11 7 -9 10 8 16
13 4 20 9 17 13 -3 3 3 12 15 20 11 8 18 20 15 27 -7 19 5 27 20 14 10 -8 12
-6 9 11 -3 16 0 20 11 16 9 -3 12 -2 9 5 -9 13 14 41 28 32 6 -4 7 -1 3 6 -5
7 -10 10 -14 7 -3 -3 -11 2 -19 12 -8 9 -12 11 -8 5z"/>
<path d="M2316 4288 c3 -5 10 -6 15 -3 13 9 11 12 -6 12 -8 0 -12 -4 -9 -9z"/>
<path d="M806 2393 c-6 -14 -5 -15 5 -6 7 7 10 15 7 18 -3 3 -9 -2 -12 -12z"/>
</g>
</svg>
